<svg width="106" height="32" viewBox="0 0 106 32" fill="none" xmlns="http://www.w3.org/2000/svg">
<g filter="url(#filter0_d_0_1995)">
<circle cx="90" cy="16" r="16" fill="#F5F5F5"/>
</g>
<path fill-rule="evenodd" clip-rule="evenodd" d="M85.9309 15.6592C85.8314 12.8718 87.9497 10.5274 90.6671 10.4174C93.3845 10.5274 95.5027 12.8718 95.4033 15.6592C95.4033 16.8169 96.6298 17.9447 96.6657 19.1051C96.6657 19.1215 96.6657 19.1378 96.6657 19.1543C96.6923 19.8977 96.1272 20.5229 95.4024 20.552H92.6666C92.6692 21.1216 92.4598 21.6708 92.0813 22.0877C91.7173 22.4931 91.2044 22.7238 90.6671 22.7238C90.1297 22.7238 89.6169 22.4931 89.2529 22.0877C88.8743 21.6708 88.665 21.1216 88.6675 20.552H85.9309C85.2061 20.5229 84.641 19.8977 84.6675 19.1543C84.6675 19.1378 84.6675 19.1215 84.6675 19.1051C84.7044 17.9482 85.9309 16.8178 85.9309 15.6592Z" stroke="black" stroke-width="1.33333" stroke-linecap="round" stroke-linejoin="round"/>
<path d="M88.6675 19.8927C88.3034 19.8927 88.0082 20.1879 88.0082 20.552C88.0082 20.9161 88.3034 21.2113 88.6675 21.2113V19.8927ZM92.6666 21.2113C93.0307 21.2113 93.3259 20.9161 93.3259 20.552C93.3259 20.1879 93.0307 19.8927 92.6666 19.8927V21.2113ZM91.5241 9.31858C91.8882 9.31858 92.1834 9.0234 92.1834 8.65929C92.1834 8.29518 91.8882 8 91.5241 8V9.31858ZM89.81 8C89.4458 8 89.1507 8.29518 89.1507 8.65929C89.1507 9.0234 89.4458 9.31858 89.81 9.31858V8ZM88.6675 21.2113H92.6666V19.8927H88.6675V21.2113ZM91.5241 8H89.81V9.31858H91.5241V8Z" fill="black"/>
<circle cx="95.3333" cy="13.3333" r="2.66667" fill="#FB7E3C"/>
<rect x="0.5" y="6.5" width="63" height="20" rx="3.5" fill="#F7F7F7" stroke="#CFCFCF"/>
<path d="M51.7186 18.8064L51.4066 18.4944L51.0582 18.7652C50.4655 19.2259 49.7216 19.5 48.9122 19.5C46.9792 19.5 45.4122 17.933 45.4122 16C45.4122 14.067 46.9792 12.5 48.9122 12.5C50.8452 12.5 52.4122 14.067 52.4122 16C52.4122 16.8093 52.1381 17.5533 51.6774 18.1459L51.4066 18.4943L51.7186 18.8064L54.1073 21.1951L51.7186 18.8064Z" stroke="#B3B3B3"/>
<defs>
<filter id="filter0_d_0_1995" x="64.6667" y="-9.33333" width="50.6667" height="50.6667" filterUnits="userSpaceOnUse" color-interpolation-filters="sRGB">
<feFlood flood-opacity="0" result="BackgroundImageFix"/>
<feColorMatrix in="SourceAlpha" type="matrix" values="0 0 0 0 0 0 0 0 0 0 0 0 0 0 0 0 0 0 127 0" result="hardAlpha"/>
<feOffset/>
<feGaussianBlur stdDeviation="4.66667"/>
<feComposite in2="hardAlpha" operator="out"/>
<feColorMatrix type="matrix" values="0 0 0 0 0 0 0 0 0 0 0 0 0 0 0 0 0 0 0.17 0"/>
<feBlend mode="normal" in2="BackgroundImageFix" result="effect1_dropShadow_0_1995"/>
<feBlend mode="normal" in="SourceGraphic" in2="effect1_dropShadow_0_1995" result="shape"/>
</filter>
</defs>
</svg>
