<svg width="41" height="40" viewBox="0 0 41 40" fill="none" xmlns="http://www.w3.org/2000/svg">
<path d="M16.2176 18.9206C11.3877 16.6148 7.06475 14.6499 2.85525 12.4644C1.72783 11.8829 0.940633 10.6465 0 9.71081C1.50768 8.7885 3.20215 6.87035 4.47634 7.12432C7.95869 7.81272 10.9674 8.11347 13.1955 4.32397C13.3823 4.59799 13.5691 4.8787 13.7559 5.15272C13.1155 6.11513 12.4751 7.07086 11.7813 8.10679C15.5638 10.4861 18.4791 9.28307 20.9274 5.74086C21.1075 6.00819 21.2877 6.27553 21.4678 6.54287C20.7206 7.55875 19.9734 8.56794 19.1062 9.74422C22.2016 11.4084 24.6899 11.4151 27.0048 8.50111C28.6526 6.42257 30.7207 4.67151 32.6153 2.79347C34.4432 0.982265 36.5246 -1.45718 39.0263 1.11593C41.3411 3.49523 39.0596 5.54704 37.3118 7.30478C35.3505 9.27638 33.5426 11.4418 31.3811 13.1661C28.5259 15.4385 28.6793 17.8846 30.2737 20.9323C31.261 20.1904 32.1817 19.4953 33.1023 18.8069C30.8874 21.7276 29.3998 24.6015 31.9882 28.2773C33.1356 27.3483 34.2831 26.426 35.4572 25.477C35.624 25.8245 35.8174 26.1253 35.7774 26.1654C32.9422 28.8053 31.4812 31.6658 32.9155 35.7828C33.2624 36.7786 31.3344 38.5765 30.4472 40C29.4798 39.1312 28.1723 38.4361 27.6119 37.3534C25.3771 33.0359 23.3757 28.5915 21.281 24.2005C20.8273 23.9131 20.367 23.6257 19.9134 23.345C18.0521 25.6909 16.0375 27.9432 14.3964 30.4361C13.7626 31.4052 14.1895 33.0159 13.7292 34.1721C13.1622 35.5756 12.1682 36.8054 11.3543 38.1086C10.5671 37.173 9.39966 36.3576 9.07277 35.2816C8.28557 32.7151 6.48436 31.6324 4.19616 30.7703C3.31556 30.4428 2.68848 29.4336 1.94798 28.7385C2.90862 27.9231 4.00269 26.2924 4.8099 26.4193C10.894 27.4152 12.2683 21.9214 16.2176 18.9206ZM18.0455 18.5396C15.7706 20.9857 13.876 22.8638 12.1682 24.8888C10.5671 26.7869 8.91266 28.0969 6.19083 27.5154C5.34359 27.335 4.32291 27.99 3.38228 28.264C3.24885 28.6115 3.11543 28.9657 2.98201 29.3133C7.7252 29.7811 9.77324 33.0092 11.7012 37.0393C11.2876 29.4603 16.4444 26.1587 21.5345 22.1887C24.3497 27.9098 27.0515 33.3902 29.7467 38.8639C30.187 38.8104 30.6273 38.7503 31.0676 38.6968C31.261 37.2197 31.8414 35.6692 31.5746 34.2857C30.5339 28.8254 29.0929 23.4319 28.1256 17.9581C27.8921 16.6148 28.5259 14.7301 29.4265 13.654C31.7147 10.9406 34.5299 8.67488 36.8248 5.96809C37.6854 4.94553 37.6854 3.19448 38.079 1.77091C36.7381 2.1786 35.0903 2.2187 34.123 3.05412C31.4345 5.37327 28.9395 7.94638 26.5512 10.5797C25.1703 12.1035 23.7693 12.4243 21.8414 11.9631C16.4444 10.6665 11.0007 9.54372 5.59043 8.28724C3.62911 7.83277 2.15478 8.12015 1.31422 10.3925C6.82459 13.0726 12.1882 15.6858 18.0455 18.5396Z" fill="#FB7E3C"/>
</svg>
