<svg width="16" height="18" viewBox="0 0 16 18" fill="none" xmlns="http://www.w3.org/2000/svg">
<path fill-rule="evenodd" clip-rule="evenodd" d="M8 1.31499C4.27805 1.31499 1.13838 4.01895 1.39411 7.3864C1.43078 7.86937 1.48561 8.28978 1.56032 8.6234C1.9372 10.3065 3.12023 11.9785 4.45274 13.3979C5.77391 14.8052 7.18059 15.9 7.90746 16.431C7.96556 16.4734 8.03444 16.4734 8.09254 16.431C8.81941 15.9 10.2261 14.8052 11.5473 13.3979C12.8798 11.9785 14.0628 10.3065 14.4397 8.6234C14.5144 8.28978 14.5692 7.86937 14.6059 7.3864C14.8616 4.01895 11.7219 1.31499 8 1.31499ZM0.018796 7.48138C-0.307477 3.18498 3.66453 0 8 0C12.3355 0 16.3075 3.18498 15.9812 7.48138C15.9421 7.99599 15.8812 8.48245 15.7882 8.89802C15.3364 10.9158 13.9634 12.7957 12.5746 14.275C11.1744 15.7665 9.69438 16.9173 8.93104 17.4749C8.37817 17.8787 7.62183 17.8787 7.06896 17.4749C6.30561 16.9173 4.82557 15.7665 3.4254 14.275C2.03657 12.7957 0.663636 10.9158 0.211805 8.89802C0.11875 8.48245 0.057876 7.99599 0.018796 7.48138Z" fill="#242424"/>
<path fill-rule="evenodd" clip-rule="evenodd" d="M8 6.57497C7.36537 6.57497 6.8509 7.06559 6.8509 7.6708C6.8509 8.27601 7.36537 8.76663 8 8.76663C8.63463 8.76663 9.14909 8.27601 9.14909 7.6708C9.14909 7.06559 8.63463 6.57497 8 6.57497ZM5.47199 7.6708C5.47199 6.33934 6.60382 5.25998 8 5.25998C9.39618 5.25998 10.528 6.33934 10.528 7.6708C10.528 9.00226 9.39618 10.0816 8 10.0816C6.60382 10.0816 5.47199 9.00226 5.47199 7.6708Z" fill="#242424"/>
</svg>
