<svg width="18" height="12" viewBox="0 0 18 12" fill="none" xmlns="http://www.w3.org/2000/svg">
<path fill-rule="evenodd" clip-rule="evenodd" d="M15.3963 1.23043C15.7204 0.948946 15.7204 0.492586 15.3963 0.211105C15.0723 -0.0703683 14.5467 -0.0703683 14.2227 0.211105L10.6864 3.28224C10.1922 3.02861 9.61562 2.88306 8.99997 2.88306C7.16654 2.88306 5.68025 4.17386 5.68025 5.76613C5.68025 6.30079 5.84784 6.80151 6.13988 7.23073L2.6036 10.3018C2.2795 10.5833 2.2795 11.0397 2.6036 11.3211C2.92771 11.6026 3.45319 11.6026 3.77731 11.3211L7.31358 8.25003C7.80778 8.50367 8.38433 8.64919 8.99997 8.64919C10.8334 8.64919 12.3197 7.35837 12.3197 5.76613C12.3197 5.23147 12.1521 4.73075 11.8601 4.30155L15.3963 1.23043ZM9.42988 4.37339C9.29277 4.34161 9.1487 4.3246 8.99997 4.3246C8.08323 4.3246 7.34011 4.96997 7.34011 5.76613C7.34011 5.89529 7.3597 6.02042 7.3963 6.13949L9.42988 4.37339ZM8.57007 7.15887L10.6037 5.39277C10.6403 5.51184 10.6598 5.63697 10.6598 5.76613C10.6598 6.56229 9.91672 7.20766 8.99997 7.20766C8.85125 7.20766 8.70718 7.19065 8.57007 7.15887ZM12.1247 0.591533C11.1816 0.230998 10.1349 0 8.99997 0C6.63263 0 4.64878 1.0052 3.18889 2.09451C1.7237 3.18778 0.706942 4.42377 0.255708 5.0236C-0.085236 5.47674 -0.085236 6.05552 0.255708 6.50866C0.636555 7.01493 1.42026 7.97434 2.53642 8.91869L3.71021 7.89931C2.73856 7.08001 2.03804 6.23686 1.68 5.76613C2.10358 5.20927 3.00647 4.13113 4.27058 3.18791C5.57569 2.21409 7.18719 1.44153 8.99997 1.44153C9.6406 1.44153 10.2561 1.53801 10.8418 1.70575L12.1247 0.591533ZM8.99997 10.0907C8.35943 10.0907 7.74396 9.99422 7.15822 9.82649L5.87525 10.9407C6.81838 11.3013 7.86513 11.5323 8.99997 11.5323C11.3674 11.5323 13.3512 10.5271 14.8112 9.43779C16.2763 8.34445 17.2931 7.10848 17.7443 6.50866C18.0852 6.05552 18.0852 5.47674 17.7443 5.0236C17.3634 4.51733 16.5797 3.5579 15.4636 2.61358L14.2898 3.63297C15.2615 4.45224 15.962 5.2954 16.3201 5.76613C15.8965 6.32299 14.9936 7.40112 13.7294 8.34438C12.4244 9.31821 10.8128 10.0907 8.99997 10.0907Z" fill="#ABAAAA"/>
</svg>
