<svg width="24" height="25" viewBox="0 0 24 25" fill="none" xmlns="http://www.w3.org/2000/svg">
<mask id="path-1-inside-1_0_1645" fill="white">
<path d="M23.8401 14.1201L22.0001 12.7216V10.8C22.0001 10.12 21.4801 9.60004 20.8001 9.60004C20.12 9.60004 19.6001 10.12 19.6001 10.8V10.8976L18.0001 9.68165V7.60006C18.0001 6.92004 17.4801 6.40006 16.8001 6.40006C16.12 6.40006 15.6001 6.92004 15.6001 7.60006V7.85764L14.0001 6.64165V4.56002C14.0001 3.32003 13.8001 2.12002 13.3601 0.960004C13.16 0.360001 12.6 0 12 0C11.4 0 10.84 0.399986 10.64 0.999988C10.2 2.16001 10 3.36001 10 4.6V6.60162L8.40003 7.81761V7.60001C8.40003 6.92 7.88005 6.40001 7.20003 6.40001C6.52001 6.40001 6.00002 6.92 6.00002 7.60001V9.64162L4.40003 10.8576V10.8C4.40003 10.12 3.88005 9.60004 3.20003 9.60004C2.52001 9.60004 2.00002 10.12 2.00002 10.8V12.6817L0.159985 14.08C0.0399845 14.1601 0 14.2801 0 14.4001V16.8001C0 16.9601 0.0800159 17.0801 0.159985 17.1201C0.239954 17.1601 0.31997 17.2001 0.399986 17.2001C0.43997 17.2001 0.480002 17.2001 0.519986 17.2001L10 13.8631V19.6068L7.04 20.8401C6.88001 20.8801 6.8 21.0402 6.8 21.2001V23.6002C6.8 23.7601 6.88001 23.8801 7.00001 23.9602C7.08003 24.0402 7.24001 24.0402 7.36001 24.0001L12 22.0401L16.6401 23.9602C16.68 24.0001 16.76 24.0001 16.8 24.0001C16.88 24.0001 16.96 24.0001 17.04 23.9201C17.12 23.8401 17.2 23.7201 17.2 23.6001V21.2001C17.2 21.0401 17.12 20.9201 16.96 20.8401L14 19.6067V13.8989L23.48 17.1601C23.52 17.2001 23.56 17.2001 23.6 17.2001C23.68 17.2001 23.76 17.2001 23.84 17.1601C23.92 17.0801 24 16.9601 24 16.8401V14.44C24 14.32 23.9201 14.2 23.8401 14.1201ZM20.4 10.8C20.4 10.56 20.56 10.4001 20.8 10.4001C21.04 10.4001 21.2 10.56 21.2 10.8V12.0801L20.4 11.4801V10.8H20.4ZM16.4 7.60001C16.4 7.36001 16.56 7.20003 16.8 7.20003C17.04 7.20003 17.2 7.36001 17.2 7.60001V9.04002L16.4 8.44002V7.60001H16.4ZM6.8 7.60001C6.8 7.36001 6.95998 7.20003 7.19998 7.20003C7.43998 7.20003 7.59997 7.40004 7.59997 7.60001V8.42563L6.79995 9.03364V7.60001H6.8ZM2.8 10.8C2.8 10.56 2.95998 10.4001 3.19998 10.4001C3.43998 10.4001 3.59997 10.6001 3.59997 10.8V11.4656L2.8 12.0736V10.8ZM0.799972 16.24V14.6L3.86655 12.2801L4.24 12C4.25814 11.988 4.27385 11.9747 4.28847 11.961L10 7.64005V13.0801L0.799972 16.24ZM16.4 23.0001L12.16 21.2401C12.12 21.2001 12.04 21.2001 12 21.2001C11.9601 21.2001 11.88 21.2401 11.8401 21.2401L7.60006 23.0001V21.4801L12.0001 19.6401L16.4001 21.4801V23.0001H16.4ZM12.16 18.8401C12.04 18.8001 11.92 18.8001 11.84 18.8401L10.8 19.2734V13.3201V7.16004V6.92004V6.80004V4.6C10.8 3.43998 11 2.31999 11.4 1.23999C11.52 0.919972 11.76 0.799972 12 0.799972C12.24 0.799972 12.48 0.919972 12.6 1.23999C13 2.31999 13.2 3.43998 13.2 4.56002V6.84003V6.96003V7.20003V13.36V19.2734L12.16 18.8401ZM23.2001 16.24L14 13.0801V7.64005L15.6918 8.91993C15.7133 8.94932 15.7366 8.97655 15.76 9.00004L17.36 10.2C17.3823 10.2112 17.4046 10.2222 17.4268 10.2325L19.7522 11.9917C19.7548 11.9944 19.7574 11.9974 19.76 12L20.133 12.2798L23.2001 14.6001V16.24Z"/>
</mask>
<path d="M23.8401 14.1201L22.0001 12.7216V10.8C22.0001 10.12 21.4801 9.60004 20.8001 9.60004C20.12 9.60004 19.6001 10.12 19.6001 10.8V10.8976L18.0001 9.68165V7.60006C18.0001 6.92004 17.4801 6.40006 16.8001 6.40006C16.12 6.40006 15.6001 6.92004 15.6001 7.60006V7.85764L14.0001 6.64165V4.56002C14.0001 3.32003 13.8001 2.12002 13.3601 0.960004C13.16 0.360001 12.6 0 12 0C11.4 0 10.84 0.399986 10.64 0.999988C10.2 2.16001 10 3.36001 10 4.6V6.60162L8.40003 7.81761V7.60001C8.40003 6.92 7.88005 6.40001 7.20003 6.40001C6.52001 6.40001 6.00002 6.92 6.00002 7.60001V9.64162L4.40003 10.8576V10.8C4.40003 10.12 3.88005 9.60004 3.20003 9.60004C2.52001 9.60004 2.00002 10.12 2.00002 10.8V12.6817L0.159985 14.08C0.0399845 14.1601 0 14.2801 0 14.4001V16.8001C0 16.9601 0.0800159 17.0801 0.159985 17.1201C0.239954 17.1601 0.31997 17.2001 0.399986 17.2001C0.43997 17.2001 0.480002 17.2001 0.519986 17.2001L10 13.8631V19.6068L7.04 20.8401C6.88001 20.8801 6.8 21.0402 6.8 21.2001V23.6002C6.8 23.7601 6.88001 23.8801 7.00001 23.9602C7.08003 24.0402 7.24001 24.0402 7.36001 24.0001L12 22.0401L16.6401 23.9602C16.68 24.0001 16.76 24.0001 16.8 24.0001C16.88 24.0001 16.96 24.0001 17.04 23.9201C17.12 23.8401 17.2 23.7201 17.2 23.6001V21.2001C17.2 21.0401 17.12 20.9201 16.96 20.8401L14 19.6067V13.8989L23.48 17.1601C23.52 17.2001 23.56 17.2001 23.6 17.2001C23.68 17.2001 23.76 17.2001 23.84 17.1601C23.92 17.0801 24 16.9601 24 16.8401V14.44C24 14.32 23.9201 14.2 23.8401 14.1201ZM20.4 10.8C20.4 10.56 20.56 10.4001 20.8 10.4001C21.04 10.4001 21.2 10.56 21.2 10.8V12.0801L20.4 11.4801V10.8H20.4ZM16.4 7.60001C16.4 7.36001 16.56 7.20003 16.8 7.20003C17.04 7.20003 17.2 7.36001 17.2 7.60001V9.04002L16.4 8.44002V7.60001H16.4ZM6.8 7.60001C6.8 7.36001 6.95998 7.20003 7.19998 7.20003C7.43998 7.20003 7.59997 7.40004 7.59997 7.60001V8.42563L6.79995 9.03364V7.60001H6.8ZM2.8 10.8C2.8 10.56 2.95998 10.4001 3.19998 10.4001C3.43998 10.4001 3.59997 10.6001 3.59997 10.8V11.4656L2.8 12.0736V10.8ZM0.799972 16.24V14.6L3.86655 12.2801L4.24 12C4.25814 11.988 4.27385 11.9747 4.28847 11.961L10 7.64005V13.0801L0.799972 16.24ZM16.4 23.0001L12.16 21.2401C12.12 21.2001 12.04 21.2001 12 21.2001C11.9601 21.2001 11.88 21.2401 11.8401 21.2401L7.60006 23.0001V21.4801L12.0001 19.6401L16.4001 21.4801V23.0001H16.4ZM12.16 18.8401C12.04 18.8001 11.92 18.8001 11.84 18.8401L10.8 19.2734V13.3201V7.16004V6.92004V6.80004V4.6C10.8 3.43998 11 2.31999 11.4 1.23999C11.52 0.919972 11.76 0.799972 12 0.799972C12.24 0.799972 12.48 0.919972 12.6 1.23999C13 2.31999 13.2 3.43998 13.2 4.56002V6.84003V6.96003V7.20003V13.36V19.2734L12.16 18.8401ZM23.2001 16.24L14 13.0801V7.64005L15.6918 8.91993C15.7133 8.94932 15.7366 8.97655 15.76 9.00004L17.36 10.2C17.3823 10.2112 17.4046 10.2222 17.4268 10.2325L19.7522 11.9917C19.7548 11.9944 19.7574 11.9974 19.76 12L20.133 12.2798L23.2001 14.6001V16.24Z" fill="white" stroke="white" stroke-width="8" mask="url(#path-1-inside-1_0_1645)"/>
</svg>
