<svg width="48" height="49" viewBox="0 0 48 49" fill="none" xmlns="http://www.w3.org/2000/svg">
<path d="M37.7044 0C37.8808 0.061364 38.0559 0.12912 38.2349 0.184092C39.9135 0.696738 41.0973 2.23467 41.1497 3.98227C41.1625 4.4131 41.1548 4.84392 41.1587 5.27347C41.1663 6.006 40.8365 6.54805 40.2471 6.96482C40.1244 7.05175 39.9812 7.21795 39.9787 7.34962C39.9582 8.54494 39.9672 9.74026 39.9672 11.0097C40.1602 11.0097 40.3277 11.0097 40.4964 11.0097C41.6764 11.0097 42.8564 11.0072 44.0377 11.011C45.8786 11.0161 47.2005 12.2677 47.2414 14.0946C47.2746 15.5456 47.2542 16.9966 47.2465 18.4488C47.2426 18.9973 46.9461 19.3271 46.5037 19.322C46.0652 19.3169 45.7801 18.9871 45.7763 18.4322C45.7673 17.0451 45.7763 15.6568 45.7725 14.2697C45.7686 13.0705 45.1473 12.4518 43.9379 12.4518C38.0368 12.4492 32.1356 12.4492 26.2344 12.4518C25.0353 12.4518 24.4012 13.0897 24.3999 14.2812C24.3986 16.195 24.405 18.1088 24.3935 20.0226C24.3909 20.3473 24.4459 20.5122 24.8115 20.6209C26.0184 20.9788 26.7164 22.0207 26.7177 23.3963C26.7228 27.5115 26.7202 31.6255 26.7202 35.7407C26.7202 35.9286 26.7202 36.1166 26.7202 36.3365C27.0871 36.3365 27.4106 36.3365 27.7864 36.3365C27.7864 36.1179 27.7864 35.9146 27.7864 35.7126C27.7864 28.9817 27.7864 22.2521 27.7877 15.5213C27.7877 15.3154 27.7864 15.1045 27.826 14.9038C27.8951 14.5471 28.1278 14.349 28.4947 14.3375C28.8833 14.3247 29.1351 14.5215 29.2208 14.8948C29.263 15.0777 29.2604 15.2745 29.2604 15.4637C29.2617 22.481 29.263 29.4982 29.2566 36.5167C29.2566 36.8644 29.3077 37.1483 29.5532 37.4269C29.9533 37.8795 30.1476 38.4356 30.1464 39.0518C30.1451 40.5028 30.1502 41.9551 30.1425 43.4061C30.1413 43.658 30.0914 43.9098 30.0582 44.223C30.2333 44.223 30.4021 44.223 30.5721 44.223C35.0056 44.223 39.4392 44.223 43.874 44.223C45.1946 44.223 45.7737 43.6503 45.7737 42.3399C45.775 35.7049 45.7737 29.0699 45.7763 22.4362C45.7763 22.2304 45.7801 22.0195 45.8236 21.82C45.9029 21.4646 46.1585 21.2703 46.5114 21.2703C46.8642 21.2703 47.1161 21.4659 47.2017 21.82C47.2426 21.9875 47.249 22.1665 47.249 22.3403C47.2516 29.0073 47.2529 35.6742 47.2503 42.3399C47.249 44.4135 45.9924 45.6651 43.9124 45.6766C43.5813 45.6779 43.2501 45.6766 42.873 45.6766C42.873 46.1585 42.8794 46.5855 42.8717 47.0112C42.8526 48.0749 42.0088 48.9071 40.9439 48.9238C39.8534 48.9404 38.9841 48.1209 38.9508 47.0343C38.938 46.606 38.9483 46.1777 38.9483 45.7136C36.3825 45.7136 33.8563 45.7136 31.2637 45.7136C31.2637 46.1048 31.2727 46.482 31.2624 46.8591C31.2279 48.0736 30.4033 48.9276 29.2745 48.925C28.1303 48.9225 27.3045 48.0404 27.2929 46.8054C27.2904 46.5855 27.2929 46.3669 27.2929 46.124C27.091 46.124 26.9388 46.124 26.7675 46.124C26.7177 46.4168 26.6946 46.7019 26.6192 46.9729C26.2817 48.1938 25.2411 48.9953 23.9793 48.9966C18.0628 49.0005 12.145 49.0017 6.22846 48.9966C4.68158 48.9953 3.632 47.9215 3.43896 46.1304C3.16921 46.1125 2.88924 46.1036 2.61182 46.0716C1.17104 45.9067 0.154701 44.9811 0.0703259 43.5429C-0.0204417 42.0024 -0.0268338 40.4466 0.0716043 38.9061C0.171321 37.3592 1.3513 36.3825 2.89946 36.371C3.07077 36.3697 3.24336 36.371 3.4658 36.371C3.4658 36.1076 3.45174 35.889 3.46836 35.6717C3.5016 35.2242 3.79052 34.9391 4.19322 34.9366C4.60232 34.9328 4.8759 35.2038 4.91808 35.664C4.93215 35.8225 4.92703 35.9823 4.92703 36.1421C4.92703 39.3638 4.92703 42.5854 4.92703 45.807C4.92703 47.1276 5.36169 47.5661 6.6644 47.5661C12.2946 47.5661 17.9247 47.5661 23.5549 47.5661C24.8294 47.5661 25.2756 47.1186 25.2756 45.8415C25.2756 40.738 25.2756 35.6346 25.2756 30.5299C25.2756 30.3547 25.2756 30.1809 25.2756 30.0645C24.5226 30.1489 23.7888 30.232 23.0205 30.3189C23.0205 30.5018 23.0205 30.7178 23.0205 30.9415C24.125 31.4989 24.3845 32.0065 24.2005 33.2619C24.1046 33.9164 23.583 34.4163 22.8862 34.4303C21.659 34.4559 20.4304 34.4585 19.2018 34.4303C18.4271 34.4124 17.9106 33.855 17.8902 33.0701C17.88 32.6904 17.8429 32.28 17.9669 31.9361C18.0756 31.6357 18.344 31.2867 18.6266 31.178C19.1175 30.9888 19.1392 30.705 19.0267 30.2742C16.4085 30.2742 13.7839 30.2742 11.135 30.2742C11.135 30.5094 11.135 30.7255 11.135 30.9467C12.2281 31.4567 12.5311 32.0461 12.324 33.2619C12.2063 33.9509 11.6873 34.4214 10.9586 34.4342C9.76329 34.4534 8.56669 34.4546 7.37009 34.4342C6.58514 34.4214 6.07249 33.9011 6.00602 33.1161C5.99835 33.0215 6.00218 32.9244 5.99451 32.8298C5.92803 31.9195 6.20161 31.2228 7.17833 30.9876C7.17833 30.7421 7.17833 30.5235 7.17833 30.3151C6.44196 30.2359 5.72349 30.1579 4.92831 30.0709C4.92831 30.5324 4.92959 31.0809 4.92703 31.6293C4.92575 31.8684 4.93342 32.1087 4.90786 32.3465C4.86311 32.7518 4.61766 32.9896 4.21623 33.0023C3.80842 33.0164 3.56935 32.7671 3.48242 32.3823C3.45174 32.2455 3.46452 32.0972 3.46452 31.954C3.46325 29.1313 3.49137 26.3073 3.4543 23.4858C3.43001 21.6065 4.89252 20.4048 6.48287 20.47C8.24836 20.5416 10.019 20.4866 11.8637 20.4866C11.8637 20.0328 11.8522 19.6084 11.8663 19.1852C11.9149 17.623 13.114 16.2679 14.5995 16.0863C16.3037 15.8779 17.825 16.8291 18.2213 18.4297C18.3798 19.0689 18.3606 19.7515 18.4271 20.4521C19.896 20.4521 21.4007 20.4521 22.9604 20.4521C22.9604 20.2706 22.9604 20.1006 22.9604 19.9292C22.9604 18.0474 23.0064 16.1643 22.9476 14.2838C22.885 12.3124 24.4728 10.9241 26.2523 11.0033C27.5256 11.0596 28.804 11.011 30.0799 11.0085C30.1106 11.0085 30.14 10.9944 30.241 10.9688C30.241 10.7707 30.241 10.5546 30.241 10.3386C30.241 9.63671 30.2244 8.93486 30.2461 8.23301C30.2653 7.6117 30.3113 7.03641 29.6158 6.66311C29.3576 6.52504 29.1582 6.107 29.1057 5.7874C28.9025 4.53071 28.9025 3.27531 29.5583 2.11962C30.1553 1.06748 31.0604 0.409094 32.2289 0.107387C32.335 0.0805403 32.4373 0.0396309 32.5421 0.00511367C34.259 0 35.9811 0 37.7044 0ZM19.028 28.7887C19.028 26.4786 19.028 24.2107 19.028 21.9581C16.3638 21.9581 13.743 21.9581 11.1337 21.9581C11.1337 24.2567 11.1337 26.5131 11.1337 28.7887C13.775 28.7887 16.3842 28.7887 19.028 28.7887ZM38.4893 10.9944C38.4893 9.74026 38.4983 8.53216 38.4765 7.32405C38.474 7.19621 38.3167 7.04152 38.1927 6.95203C37.6558 6.56595 37.3272 6.0712 37.3055 5.39876C37.2966 5.11239 37.2966 4.82603 37.294 4.53966C37.2889 3.91068 37.2672 3.88511 36.6573 3.88255C35.8136 3.88 34.9686 3.88255 34.1248 3.88128C32.909 3.88128 32.9039 3.88128 32.9026 5.08554C32.9014 5.91012 32.6124 6.56595 31.8863 7.01212C31.7725 7.08115 31.6856 7.28059 31.6805 7.42377C31.6575 8.02846 31.6702 8.63443 31.6702 9.23912C31.6702 9.82208 31.6702 10.4038 31.6702 10.9944C33.9676 10.9944 36.1933 10.9944 38.4893 10.9944ZM23.009 28.7874C23.4117 28.7874 23.7952 28.8296 24.1659 28.7785C24.8039 28.6902 25.2577 28.1686 25.2641 27.5256C25.2782 26.0759 25.2782 24.6262 25.2628 23.1777C25.2564 22.6075 24.878 22.1179 24.3219 22.0028C23.9 21.9146 23.4564 21.9312 23.009 21.9006C23.009 24.2465 23.009 26.5016 23.009 28.7874ZM7.16938 21.9236C6.80758 21.9236 6.49054 21.9018 6.17605 21.9274C5.46525 21.9862 4.96539 22.4452 4.95004 23.1547C4.91808 24.6364 4.92064 26.1193 4.95388 27.5998C4.96922 28.2633 5.45502 28.726 6.10957 28.7912C6.45218 28.8258 6.80119 28.7976 7.16938 28.7976C7.16938 26.499 7.16938 24.2414 7.16938 21.9236ZM35.1117 1.39859C35.1117 1.41137 35.1105 1.42288 35.1105 1.43566C34.4572 1.43566 33.8039 1.42032 33.1507 1.4395C31.908 1.47529 30.8163 2.29859 30.5657 3.46707C30.4442 4.03469 30.4749 4.6381 30.4621 5.22617C30.4545 5.55217 30.6092 5.79379 30.9735 5.77973C31.311 5.76694 31.4286 5.53171 31.4325 5.22361C31.4376 4.84137 31.4197 4.45784 31.4504 4.07687C31.5283 3.11422 32.2033 2.4405 33.1609 2.42132C34.4508 2.39448 35.7433 2.39192 37.0332 2.4226C38.0163 2.44561 38.7194 3.20116 38.7463 4.18554C38.7552 4.52048 38.754 4.85543 38.7463 5.1891C38.7386 5.52148 38.8537 5.77078 39.2155 5.77589C39.6054 5.78228 39.7256 5.52021 39.7192 5.16992C39.714 4.81963 39.723 4.46807 39.7166 4.11778C39.691 2.82786 38.814 1.72714 37.5395 1.52771C36.743 1.40115 35.9223 1.43566 35.1117 1.39859ZM26.7394 44.5746C28.1405 44.7459 28.7107 44.2524 28.712 42.9178C28.712 41.7378 28.7145 40.5591 28.712 39.3791C28.7094 38.1927 27.9475 37.6046 26.7407 37.8744C26.7394 40.095 26.7394 42.3195 26.7394 44.5746ZM3.44279 37.8475C2.09278 37.6826 1.50471 38.1876 1.50343 39.475C1.50215 40.6844 1.49832 41.8937 1.50471 43.1031C1.5111 44.278 2.25642 44.8354 3.44279 44.5439C3.44279 42.3233 3.44279 40.0988 3.44279 37.8475ZM13.2598 20.447C14.5279 20.447 15.6964 20.447 16.87 20.447C16.87 19.9548 16.9096 19.4933 16.8611 19.0395C16.7728 18.2072 16.0838 17.5629 15.2873 17.5041C14.386 17.4376 13.5985 17.9183 13.3978 18.7659C13.2725 19.2964 13.3019 19.8628 13.2598 20.447ZM8.70092 21.9325C8.70092 24.9752 8.70092 27.9743 8.70092 30.9799C9.03587 30.9799 9.33118 30.9799 9.63416 30.9799C9.63416 27.9513 9.63416 24.9496 9.63416 21.9325C9.31712 21.9325 9.03459 21.9325 8.70092 21.9325ZM20.5813 21.9364C20.5813 24.9752 20.5813 27.9743 20.5813 30.9799C20.9098 30.9799 21.2038 30.9799 21.5068 30.9799C21.5068 27.9526 21.5068 24.9534 21.5068 21.9364C21.1936 21.9364 20.9124 21.9364 20.5813 21.9364ZM7.4404 32.459C7.46086 32.6572 7.4762 32.8042 7.49154 32.9474C8.63444 32.9474 9.72621 32.9474 10.8487 32.9474C10.8487 32.7735 10.8487 32.6278 10.8487 32.459C9.71726 32.459 8.61015 32.459 7.4404 32.459ZM19.3463 32.9423C20.4905 32.9423 21.6104 32.9423 22.7661 32.9423C22.7558 32.7607 22.7482 32.6124 22.7405 32.4731C21.5771 32.4731 20.4598 32.4731 19.322 32.4731C19.331 32.6482 19.3374 32.7876 19.3463 32.9423ZM41.4374 45.7111C41.0525 45.7111 40.7291 45.7111 40.3801 45.7111C40.3801 46.1279 40.3763 46.5075 40.3814 46.8885C40.3865 47.2171 40.5373 47.4497 40.8812 47.4638C41.2558 47.4791 41.4207 47.2337 41.4335 46.8885C41.4476 46.5088 41.4374 46.1291 41.4374 45.7111ZM29.7769 45.6753C29.4816 45.6753 29.2579 45.651 29.0444 45.6855C28.9395 45.7034 28.7785 45.8274 28.7734 45.9118C28.7491 46.2889 28.7235 46.6801 28.8002 47.0445C28.836 47.212 29.1224 47.4561 29.2668 47.4382C29.4522 47.4152 29.7232 47.1838 29.7539 47.0061C29.8268 46.5945 29.7769 46.1611 29.7769 45.6753Z" fill="black"/>
<path d="M15.1224 44.9747C13.1613 44.9747 11.2015 44.9773 9.24038 44.9734C8.18441 44.9721 7.43398 44.3022 7.41352 43.2424C7.379 41.4897 7.379 39.7357 7.41352 37.983C7.43526 36.9219 8.16907 36.2546 9.2391 36.2533C13.1447 36.2469 17.0502 36.2457 20.9558 36.2533C22.077 36.2559 22.7712 36.9629 22.7737 38.0789C22.7775 39.769 22.7775 41.4578 22.7737 43.1478C22.7712 44.2588 22.0604 44.9721 20.9558 44.9747C19.0113 44.9773 17.0669 44.9747 15.1224 44.9747ZM15.07 43.5429C16.9659 43.5429 18.8617 43.5339 20.7576 43.5493C21.1897 43.5531 21.3534 43.401 21.3483 42.9637C21.3317 41.4028 21.3317 39.8406 21.3483 38.2796C21.3534 37.8539 21.2204 37.6877 20.773 37.689C16.9965 37.7018 13.2201 37.7031 9.44365 37.6877C8.99876 37.6864 8.86325 37.8309 8.86836 38.2643C8.88754 39.8252 8.88882 41.3875 8.86708 42.9484C8.86069 43.4112 9.01921 43.5557 9.47561 43.5505C11.3408 43.5314 13.206 43.5429 15.07 43.5429Z" fill="#FB7E3C"/>
<path d="M32.1663 27.6048C32.1663 23.5241 32.165 19.4421 32.1701 15.3614C32.1701 15.1582 32.1842 14.9421 32.2545 14.7555C32.376 14.4371 32.6432 14.3042 32.9832 14.3412C33.3246 14.3783 33.5393 14.5688 33.5956 14.9101C33.6237 15.0815 33.6237 15.2592 33.6237 15.4343C33.625 23.5804 33.625 31.7264 33.625 39.8738C33.625 39.9377 33.6263 40.0016 33.625 40.0656C33.6109 40.6818 33.368 40.9796 32.8886 40.972C32.4233 40.9643 32.1689 40.6434 32.1689 40.0413C32.165 35.8941 32.1663 31.7495 32.1663 27.6048Z" fill="#FB7E3C"/>
<path d="M40.9439 27.6586C40.9439 23.6099 40.9439 19.5599 40.9439 15.5111C40.9439 15.336 40.9375 15.1596 40.9542 14.9857C40.9951 14.574 41.2354 14.3503 41.6432 14.3375C42.0561 14.3247 42.2927 14.5613 42.3758 14.9499C42.4052 15.088 42.3873 15.2363 42.3873 15.3794C42.3873 23.5575 42.3873 31.7355 42.3873 39.9135C42.3873 40.0721 42.4064 40.2395 42.3681 40.3891C42.2709 40.7739 42.0216 40.9951 41.6074 40.9657C41.2201 40.9376 40.9976 40.7164 40.9567 40.3316C40.9375 40.1577 40.9452 39.9813 40.9452 39.8062C40.9426 35.7561 40.9439 31.7074 40.9439 27.6586Z" fill="#FB7E3C"/>
<path d="M36.5589 27.6061C36.5589 23.4768 36.5577 19.3488 36.5602 15.2195C36.5602 14.6545 36.8159 14.331 37.2659 14.3349C37.6712 14.3387 37.9256 14.5458 37.9844 14.9536C38.0074 15.1096 37.9946 15.272 37.9946 15.4318C37.9946 23.5778 37.9946 31.7239 37.9946 39.87C37.9946 40.6536 37.7811 40.9784 37.2684 40.972C36.766 40.9656 36.5576 40.637 36.5576 39.8508C36.5589 35.7688 36.5589 31.6868 36.5589 27.6061Z" fill="#FB7E3C"/>
</svg>
