<svg width="14" height="16" viewBox="0 0 14 16" fill="none" xmlns="http://www.w3.org/2000/svg">
<path fill-rule="evenodd" clip-rule="evenodd" d="M2.00736 7.96248C1.904 5.06473 4.10614 2.62751 6.93113 2.51309C9.75617 2.62751 11.9583 5.06473 11.855 7.96248C11.855 9.16605 13.13 10.3385 13.1674 11.5448C13.1674 11.5619 13.1674 11.5789 13.1674 11.596C13.195 12.3689 12.6075 13.0188 11.854 13.0491H9.0099C9.01255 13.6413 8.79487 14.2122 8.40136 14.6456C8.02292 15.0671 7.48977 15.3069 6.93113 15.3069C6.37248 15.3069 5.83942 15.0671 5.46099 14.6456C5.06739 14.2122 4.84976 13.6413 4.8524 13.0491H2.00736C1.2539 13.0188 0.666409 12.3689 0.693999 11.596C0.693999 11.5789 0.693999 11.5619 0.693999 11.5448C0.732317 10.3422 2.00736 9.16696 2.00736 7.96248Z" stroke="black" stroke-width="1.33333" stroke-linecap="round" stroke-linejoin="round"/>
<path d="M4.85238 12.3637C4.47384 12.3637 4.16697 12.6706 4.16697 13.0491C4.16697 13.4276 4.47384 13.7345 4.85238 13.7345V12.3637ZM9.0099 13.7345C9.38842 13.7345 9.6953 13.4276 9.6953 13.0491C9.6953 12.6706 9.38842 12.3637 9.0099 12.3637V13.7345ZM7.82214 1.3708C8.20067 1.3708 8.50754 1.06393 8.50754 0.685401C8.50754 0.306868 8.20067 0 7.82214 0V1.3708ZM6.0401 0C5.66158 0 5.35471 0.306868 5.35471 0.685401C5.35471 1.06393 5.66158 1.3708 6.0401 1.3708V0ZM4.85238 13.7345H9.0099V12.3637H4.85238V13.7345ZM7.82214 0H6.0401V1.3708H7.82214V0Z" fill="black"/>
</svg>
