<svg width="14" height="15" viewBox="0 0 14 15" fill="none" xmlns="http://www.w3.org/2000/svg">
<path fill-rule="evenodd" clip-rule="evenodd" d="M6.75 1.10953C3.60961 1.10953 0.960509 3.39099 1.17628 6.23227C1.20722 6.63978 1.25348 6.9945 1.31652 7.27599C1.63451 8.69612 2.6327 10.1069 3.757 11.3045C4.87174 12.4919 6.05862 13.4156 6.67192 13.8636C6.72094 13.8994 6.77906 13.8994 6.82808 13.8636C7.44138 13.4156 8.62826 12.4919 9.743 11.3045C10.8673 10.1069 11.8655 8.69612 12.1835 7.27599C12.2465 6.9945 12.2928 6.63978 12.3237 6.23227C12.5395 3.39099 9.89039 1.10953 6.75 1.10953ZM0.0158591 6.31242C-0.259434 2.68733 3.09195 0 6.75 0C10.4081 0 13.7594 2.68733 13.4841 6.31242C13.4512 6.74662 13.3998 7.15706 13.3213 7.5077C12.9401 9.21022 11.7816 10.7963 10.6098 12.0445C9.42842 13.3029 8.17964 14.274 7.53556 14.7444C7.06908 15.0852 6.43092 15.0852 5.96444 14.7444C5.32036 14.274 4.07158 13.3029 2.89018 12.0445C1.71836 10.7963 0.559943 9.21022 0.178711 7.5077C0.100195 7.15706 0.0488329 6.74662 0.0158591 6.31242Z" fill="#030D45"/>
<path fill-rule="evenodd" clip-rule="evenodd" d="M6.75 5.54763C6.21453 5.54763 5.78045 5.96159 5.78045 6.47224C5.78045 6.98289 6.21453 7.39685 6.75 7.39685C7.28547 7.39685 7.71955 6.98289 7.71955 6.47224C7.71955 5.96159 7.28547 5.54763 6.75 5.54763ZM4.61699 6.47224C4.61699 5.34882 5.57197 4.43811 6.75 4.43811C7.92803 4.43811 8.88301 5.34882 8.88301 6.47224C8.88301 7.59566 7.92803 8.50637 6.75 8.50637C5.57197 8.50637 4.61699 7.59566 4.61699 6.47224Z" fill="#030D45"/>
</svg>
