<svg width="19" height="24" viewBox="0 0 19 24" fill="none" xmlns="http://www.w3.org/2000/svg">
<g clip-path="url(#clip0_0_1653)">
<path d="M8.75266 0.317839C8.28404 0.317839 7.90424 0.697635 7.90424 1.16625V6.55384C7.90424 6.95814 7.00682 7.66566 6.02262 8.03933C5.69183 8.16491 5.47335 8.48141 5.47437 8.83466L5.505 21.3261C5.505 21.6691 5.28753 21.8222 4.80054 21.8222C4.16857 21.8222 4.09608 21.5384 4.09608 21.3281L4.12671 8.83466C4.12671 8.48141 3.90924 8.16389 3.57845 8.03933C2.59323 7.66566 1.69683 6.95814 1.69683 6.55384V1.16625C1.69683 0.697635 1.31703 0.317839 0.848415 0.317839C0.379796 0.317839 0 0.697635 0 1.16625V6.55384C0 7.99441 1.55492 8.95819 2.42886 9.38495L2.39925 21.3261C2.39925 22.3828 3.15067 23.5201 4.80156 23.5201C6.45245 23.5201 7.20285 22.3828 7.20285 21.324L7.17324 9.38495C8.04616 8.95819 9.6021 7.99441 9.6021 6.55384V1.16625C9.6021 0.697635 9.2223 0.317839 8.75368 0.317839H8.75266ZM17.2817 13.1931C17.2725 13.5004 17.2052 13.7383 17.099 13.8435C16.7855 14.1538 16.7621 14.6521 17.0449 14.99C17.0735 15.0247 17.0888 15.0615 17.0888 15.0982V21.3087C17.049 21.4425 16.7069 21.8233 16.126 21.8233C15.5114 21.8233 15.2143 21.4128 15.1949 21.3271V15.0992C15.1949 15.04 15.2265 14.9982 15.2531 14.9737C15.591 14.6623 15.6196 14.1385 15.3174 13.7914C15.1837 13.6383 15.0908 13.4167 15.0458 13.285C15.0407 12.36 15.006 6.4201 15.0183 5.01934C15.0285 3.73804 16.4966 2.35567 17.2807 1.86969C17.2868 3.29393 17.3236 11.8097 17.2807 13.1931H17.2817ZM18.9786 1.67469C18.9837 1.46131 18.9581 0.83036 18.5334 0.391348C18.2904 0.140193 17.9607 0.00134277 17.6033 0.00134277C16.3057 0.00134277 13.3419 2.56599 13.3225 5.00607C13.3092 6.53036 13.349 13.136 13.351 13.4167C13.351 13.4841 13.3602 13.5505 13.3756 13.6158C13.3878 13.6658 13.4705 13.9813 13.6604 14.3437C13.5552 14.5796 13.4991 14.8379 13.4991 15.0992V21.3271C13.4991 22.3644 14.5782 23.5211 16.127 23.5211C17.6758 23.5211 18.7866 22.3634 18.7866 21.3271V15.0992C18.7866 14.8971 18.7529 14.696 18.6876 14.5061C18.8652 14.1538 18.9632 13.7332 18.9786 13.2472C19.0265 11.7291 18.9816 2.24847 18.9786 1.67571V1.67469ZM3.4835 5.50838C3.95212 5.50838 4.33192 5.12859 4.33192 4.65997V1.16625C4.33192 0.697635 3.95212 0.317839 3.4835 0.317839C3.01488 0.317839 2.63509 0.697635 2.63509 1.16625V4.65997C2.63509 5.12859 3.01488 5.50838 3.4835 5.50838ZM6.11859 5.50838C6.58721 5.50838 6.96701 5.12859 6.96701 4.65997V1.16625C6.96701 0.697635 6.58721 0.317839 6.11859 0.317839C5.64997 0.317839 5.27018 0.697635 5.27018 1.16625V4.65997C5.27018 5.12859 5.64997 5.50838 6.11859 5.50838Z" fill="#FB7E3C"/>
</g>
<defs>
<clipPath id="clip0_0_1653">
<rect width="19" height="23.5198" fill="white"/>
</clipPath>
</defs>
</svg>
