<svg width="44" height="43" viewBox="0 0 44 43" fill="none" xmlns="http://www.w3.org/2000/svg">
<path d="M44 41.622C43.6843 42.1724 43.2227 42.2652 42.6165 42.1758C40.0287 41.794 37.4339 41.4535 34.8426 41.0969C32.931 40.8344 31.0183 40.5764 29.1078 40.3058C28.4373 40.2107 28.1893 39.9114 28.1881 39.243C28.1859 38.1561 28.187 37.0692 28.187 35.9823C28.187 35.8424 28.187 35.7037 28.187 35.5443C24.0526 35.5443 19.9619 35.5443 15.8138 35.5443C15.8138 36.2598 15.8149 36.9683 15.8138 37.678C15.8126 38.4416 15.6002 38.7064 14.8321 38.8016C12.4911 39.0917 10.1478 39.3657 7.8045 39.6454C5.57486 39.9114 3.34522 40.1763 1.11557 40.4411C0.425557 40.5225 0.00190226 40.1659 0.00190226 39.4838C-0.000393971 28.2983 -0.000393971 17.1129 0.000754145 5.9275C0.000754145 5.31296 0.27171 5.00799 0.934172 4.92315C2.22465 4.75919 3.51973 4.61932 4.81136 4.46569C7.09726 4.19396 9.38316 3.9188 11.6691 3.64593C12.2661 3.57484 12.8619 3.5072 13.459 3.43382C13.6392 3.41204 13.8183 3.3742 14.0284 3.33866C14.0284 2.59801 14.0273 1.88487 14.0284 1.17174C14.0307 0.302681 14.3281 0 15.1788 0C19.7047 0 24.2306 0 28.7576 0C29.5567 0 29.877 0.315292 29.8805 1.11327C29.8851 2.20017 29.8816 3.28707 29.8816 4.37396C29.8816 4.5276 29.8816 4.68123 29.8816 4.86009C30.8437 4.99194 31.7611 5.1192 32.6784 5.24073C33.3076 5.32443 33.652 5.70049 33.5992 6.2554C33.5487 6.78394 33.0998 7.09121 32.4672 7.02013C32.1836 6.98802 31.9012 6.93528 31.6187 6.8963C31.0952 6.82407 30.5716 6.75413 29.9918 6.67503C29.9838 6.84586 29.97 6.9949 29.97 7.14395C29.9689 13.0795 29.9735 19.0161 29.9597 24.9517C29.9585 25.3346 30.0791 25.4366 30.4453 25.5146C33.1583 26.0947 34.9 27.6907 35.5751 30.4251C35.7726 31.222 36.1228 31.981 36.4018 32.7572C36.4948 33.0151 36.6199 33.077 36.9161 32.9888C38.0068 32.6631 38.9965 32.8764 39.7784 33.7283C40.5568 34.5755 40.7302 35.5776 40.2904 36.6347C39.8496 37.6975 38.9988 38.2467 37.8564 38.3178C36.0459 38.4313 34.6176 36.6014 35.148 34.8358C35.2468 34.5044 35.2192 34.2591 35.0401 33.9633C34.4132 32.928 34.0562 31.7861 33.7668 30.6166C33.311 28.7753 32.0768 27.7308 30.2766 27.2894C30.1951 27.2688 30.1067 27.2734 29.9953 27.263C29.9953 31.0443 29.9953 34.8129 29.9953 38.6216C34.0493 39.1834 38.0964 39.7429 42.2135 40.3127C42.2135 40.1327 42.2135 39.9837 42.2135 39.8346C42.2135 29.5079 42.2124 19.1801 42.2193 8.85341C42.2193 8.50257 42.1825 8.2962 41.7508 8.29505C41.3398 8.29391 40.9288 8.19875 40.5189 8.13683C39.9793 8.05429 39.6383 7.61746 39.7095 7.1107C39.7761 6.63604 40.2227 6.30011 40.7439 6.36432C41.5671 6.46521 42.3961 6.54661 43.2044 6.72089C43.4971 6.78394 43.7359 7.0935 43.9989 7.29071C44 18.7364 44 30.1786 44 41.622ZM1.80904 6.6177C1.80904 17.2769 1.80904 27.8959 1.80904 38.531C1.96059 38.531 2.08688 38.5436 2.21088 38.5287C3.23385 38.4106 4.25567 38.2891 5.27864 38.1676C8.06053 37.8339 10.8424 37.4934 13.6266 37.1724C13.9331 37.1368 14.0353 37.0474 14.0342 36.731C14.0238 32.498 14.0273 28.2651 14.025 24.0322C14.025 23.9336 13.9997 23.8338 13.9779 23.6721C12.6748 25.3266 11.0583 26.4169 9.20175 27.1885C9.04446 27.2539 8.88947 27.4625 8.84354 27.6334C8.45778 29.0837 6.96867 29.9837 5.51975 29.6168C4.02146 29.2373 3.13052 27.7652 3.52088 26.2885C3.79643 25.244 4.4807 24.5687 5.51745 24.3108C6.6162 24.0367 7.54962 24.3853 8.289 25.236C8.43481 25.4045 8.52092 25.5467 8.80451 25.424C10.3855 24.7361 11.754 23.7811 12.7357 22.3445C13.5634 21.1326 14.064 19.8336 14.0457 18.3099C13.9951 14.1056 14.0284 9.90132 14.0284 5.69705C14.0284 5.52965 14.0284 5.36112 14.0284 5.16162C9.92966 5.64889 5.88714 6.13043 1.80904 6.6177ZM28.0768 33.7133C28.0768 30.4676 28.0768 27.2562 28.0768 24.0528C28.0297 24.0367 28.0033 24.0241 27.9757 24.0184C27.8483 23.9966 27.722 23.9725 27.5946 23.9576C25.5567 23.718 24.141 22.6403 23.2868 20.7921C22.7002 19.5229 22.4855 18.1528 22.1663 16.8079C21.924 15.7864 21.6657 14.7557 21.2742 13.7857C20.9022 12.8662 20.1651 12.606 19.1869 12.8513C18.0009 13.1483 17.0641 13.8729 16.1364 14.6192C15.8895 14.8176 15.8046 15.0308 15.8046 15.3473C15.8149 21.308 15.8115 27.2688 15.8115 33.2295C15.8115 33.3831 15.8115 33.5356 15.8115 33.7111C19.916 33.7133 23.9757 33.7133 28.0768 33.7133ZM15.8379 1.80462C15.8379 5.40239 15.8379 8.9543 15.8379 12.5234C16.4326 12.1886 16.9848 11.8366 17.5692 11.5546C20.2225 10.2751 22.3534 11.1499 23.28 13.9439C23.6198 14.9678 23.815 16.0421 24.0526 17.098C24.3133 18.2537 24.5429 19.4174 25.1307 20.4665C25.7725 21.6107 26.7702 22.1507 28.0722 22.2138C28.0722 15.3954 28.0722 8.61035 28.0722 1.80462C23.986 1.80462 19.9263 1.80462 15.8379 1.80462ZM6.16958 27.9074C6.69771 27.9085 7.12596 27.4935 7.13285 26.9741C7.13974 26.4456 6.68164 25.9904 6.15351 26.0007C5.63571 26.011 5.22238 26.4421 5.22468 26.9684C5.22813 27.5095 5.62767 27.9074 6.16958 27.9074ZM37.752 34.6306C37.2192 34.6409 36.8036 35.072 36.8174 35.6017C36.83 36.1233 37.2824 36.559 37.7944 36.5441C38.3088 36.5292 38.7497 36.0683 38.7359 35.5604C38.721 35.0364 38.2812 34.6202 37.752 34.6306Z" fill="black"/>
<path d="M36.6471 7.56356C36.1661 7.56012 35.77 7.17374 35.7619 6.70023C35.7539 6.21296 36.1672 5.8048 36.6644 5.80824C37.1489 5.81283 37.5381 6.19462 37.5461 6.67386C37.553 7.1726 37.1546 7.567 36.6471 7.56356Z" fill="#FB7E3C"/>
</svg>
