<svg width="10" height="9" viewBox="0 0 10 9" fill="none" xmlns="http://www.w3.org/2000/svg">
<path d="M4.22612 0.348219C4.37698 -0.116083 5.03384 -0.116084 5.1847 0.348218L5.95001 2.7036C6.01748 2.91124 6.21097 3.05182 6.4293 3.05182H8.90589C9.39409 3.05182 9.59707 3.67654 9.20211 3.96349L7.19851 5.41919C7.02188 5.54752 6.94797 5.77499 7.01543 5.98264L7.78074 8.33801C7.9316 8.80231 7.40019 9.18841 7.00523 8.90146L5.00163 7.44575C4.825 7.31742 4.58582 7.31742 4.40919 7.44575L2.40559 8.90146C2.01063 9.18841 1.47921 8.80232 1.63008 8.33801L2.39538 5.98264C2.46285 5.77499 2.38894 5.54752 2.21231 5.41919L0.208707 3.96349C-0.186252 3.67654 0.0167297 3.05182 0.504925 3.05182H2.98152C3.19984 3.05182 3.39334 2.91124 3.46081 2.7036L4.22612 0.348219Z" fill="#FDCC0D"/>
</svg>
