<svg width="16" height="16" viewBox="0 0 16 16" fill="none" xmlns="http://www.w3.org/2000/svg">
<path fill-rule="evenodd" clip-rule="evenodd" d="M14.7889 1.46873C14.8517 1.30734 14.6927 1.14834 14.5313 1.2111L1.32106 6.3484C1.15474 6.41308 1.15102 6.64708 1.3152 6.71701L6.38697 8.8772C6.71808 9.01823 6.98177 9.28192 7.1228 9.61303L9.28299 14.6848C9.35293 14.849 9.58692 14.8453 9.6516 14.6789L14.7889 1.46873ZM14.0985 0.0981324C15.2282 -0.341194 16.3412 0.771857 15.9019 1.90155L10.7646 15.1118C10.3118 16.276 8.67384 16.302 8.18434 15.1527L6.02414 10.081C6.00399 10.0337 5.96632 9.99601 5.91902 9.97586L0.847258 7.81566C-0.302014 7.32616 -0.276 5.6882 0.888239 5.23544L14.0985 0.0981324Z" fill="#242424"/>
</svg>
