<svg width="21" height="19" viewBox="0 0 21 19" fill="none" xmlns="http://www.w3.org/2000/svg">
<path fill-rule="evenodd" clip-rule="evenodd" d="M9.84727 3.03053C8.05247 1.1601 5.03002 1.13337 3.06924 3.04907C3.06302 3.05513 3.05672 3.0611 3.05031 3.06697C1.14798 4.8094 1.11987 7.72559 3.06924 9.63013L3.07435 9.63513L10.4343 16.9543L17.9308 9.63013C17.937 9.62407 17.9433 9.6181 17.9497 9.61223C19.852 7.8698 19.8801 4.95361 17.9308 3.04907C15.9805 1.14365 12.9431 1.14365 10.9929 3.04907C10.8388 3.19958 10.6313 3.28225 10.4162 3.27878C10.2012 3.2753 9.9964 3.18595 9.84727 3.03053ZM10.4438 1.38403C7.97441 -0.625934 4.32907 -0.434692 1.9513 1.87962C-0.663574 4.28451 -0.633299 8.27173 1.93937 10.7879L1.942 10.7905L9.86054 18.6652C10.1734 18.9763 10.6773 18.9785 10.9929 18.6702L19.049 10.7993C21.6645 8.39357 21.6332 4.40466 19.058 1.8887C16.666 -0.448295 13.0168 -0.616516 10.4438 1.38403Z" fill="white"/>
</svg>
