<svg width="21" height="21" viewBox="0 0 21 21" fill="none" xmlns="http://www.w3.org/2000/svg">
<path d="M7.26923 13.7308C7.26923 14.3255 6.78708 14.8077 6.19231 14.8077C5.59754 14.8077 5.11539 14.3255 5.11539 13.7308C5.11539 13.136 5.59754 12.6538 6.19231 12.6538C6.78708 12.6538 7.26923 13.136 7.26923 13.7308Z" fill="white"/>
<path d="M7.26923 9.42308C7.26923 10.0178 6.78708 10.5 6.19231 10.5C5.59754 10.5 5.11539 10.0178 5.11539 9.42308C5.11539 8.82831 5.59754 8.34615 6.19231 8.34615C6.78708 8.34615 7.26923 8.82831 7.26923 9.42308Z" fill="white"/>
<path d="M11.5769 13.7308C11.5769 14.3255 11.0948 14.8077 10.5 14.8077C9.90523 14.8077 9.42308 14.3255 9.42308 13.7308C9.42308 13.136 9.90523 12.6538 10.5 12.6538C11.0948 12.6538 11.5769 13.136 11.5769 13.7308Z" fill="white"/>
<path d="M11.5769 9.42308C11.5769 10.0178 11.0948 10.5 10.5 10.5C9.90523 10.5 9.42308 10.0178 9.42308 9.42308C9.42308 8.82831 9.90523 8.34615 10.5 8.34615C11.0948 8.34615 11.5769 8.82831 11.5769 9.42308Z" fill="white"/>
<path d="M15.8846 9.42308C15.8846 10.0178 15.4025 10.5 14.8077 10.5C14.2129 10.5 13.7308 10.0178 13.7308 9.42308C13.7308 8.82831 14.2129 8.34615 14.8077 8.34615C15.4025 8.34615 15.8846 8.82831 15.8846 9.42308Z" fill="white"/>
<path fill-rule="evenodd" clip-rule="evenodd" d="M10.5 2.69231C8.22051 2.69231 5.10617 2.88983 3.16239 3.03206C2.52268 3.07886 2.01863 3.57874 1.96669 4.21682C1.81676 6.05849 1.61538 8.92955 1.61538 11.0385C1.61538 13.1474 1.81676 16.0184 1.96669 17.8601C2.01863 18.4982 2.52269 18.9981 3.16239 19.0449C5.10617 19.1871 8.22051 19.3846 10.5 19.3846C12.7795 19.3846 15.8938 19.1871 17.8376 19.0449C18.4773 18.9981 18.9814 18.4982 19.0333 17.8601C19.1832 16.0184 19.3846 13.1474 19.3846 11.0385C19.3846 8.92955 19.1832 6.05849 19.0333 4.21682C18.9814 3.57874 18.4773 3.07886 17.8376 3.03206C15.8938 2.88983 12.7795 2.69231 10.5 2.69231ZM3.04451 1.42098C4.98917 1.27869 8.1557 1.07692 10.5 1.07692C12.8443 1.07692 16.0108 1.27869 17.9555 1.42098C19.3882 1.5258 20.5267 2.65276 20.6434 4.08575C20.7934 5.92888 21 8.85767 21 11.0385C21 13.2192 20.7934 16.148 20.6434 17.9912C20.5267 19.4242 19.3882 20.5511 17.9555 20.6559C16.0108 20.7982 12.8443 21 10.5 21C8.1557 21 4.98917 20.7982 3.04451 20.6559C1.61183 20.5511 0.473287 19.4242 0.35663 17.9912C0.206584 16.148 0 13.2192 0 11.0385C0 8.85767 0.206584 5.92888 0.35663 4.08575C0.473287 2.65276 1.61183 1.5258 3.04451 1.42098Z" fill="white"/>
<path fill-rule="evenodd" clip-rule="evenodd" d="M7.26923 0C7.71531 5.44403e-08 8.07692 0.361616 8.07692 0.807692V3.5C8.07692 3.94608 7.71531 4.30769 7.26923 4.30769C6.82315 4.30769 6.46154 3.94608 6.46154 3.5V0.807692C6.46154 0.361616 6.82316 -5.44403e-08 7.26923 0Z" fill="white"/>
<path fill-rule="evenodd" clip-rule="evenodd" d="M13.7308 0C14.1768 5.44403e-08 14.5385 0.361616 14.5385 0.807692L14.5385 3.5C14.5385 3.94608 14.1768 4.30769 13.7308 4.30769C13.2847 4.30769 12.9231 3.94608 12.9231 3.5L12.9231 0.807692C12.9231 0.361616 13.2847 -5.44403e-08 13.7308 0Z" fill="white"/>
</svg>
