<svg width="14" height="14" viewBox="0 0 14 14" fill="none" xmlns="http://www.w3.org/2000/svg">
<path d="M0 7.00628C0.036736 3.1948 3.01509 0.0156997 6.99548 5.64481e-05C10.8524 -0.0151957 13.998 3.06223 13.9999 7.00042C14.0023 10.8686 10.9305 13.9953 7.00876 14C3.16438 14.0043 0.0582305 10.955 0 7.00628ZM5.91176 3.89445C5.91176 3.94333 5.90825 3.99222 5.91215 4.04071C5.96804 4.67974 6.02627 5.31877 6.08137 5.95818C6.13257 6.5538 6.17751 7.1502 6.23223 7.74582C6.26818 8.13651 6.59724 8.41926 7.00016 8.41965C7.41442 8.42004 7.73801 8.14042 7.78022 7.74269C7.79468 7.60738 7.80445 7.47167 7.81617 7.33597C7.86268 6.78845 7.9088 6.24133 7.95569 5.69381C7.99047 5.28709 8.03151 4.88075 8.05965 4.47325C8.07841 4.20223 8.12257 3.923 8.07958 3.6598C7.98188 3.05988 7.45233 2.70204 6.83563 2.77282C6.31156 2.83305 5.90785 3.32151 5.91176 3.89445ZM6.05519 10.2683C6.01455 10.8068 6.53393 11.2335 6.99196 11.2382C7.52932 11.2437 7.95686 10.7571 7.96468 10.2957C7.97367 9.76145 7.48672 9.3207 7.01189 9.31797C6.50149 9.31562 6.01806 9.78374 6.05519 10.2683Z" fill="#FB0000"/>
</svg>
