<svg width="45" height="48" viewBox="0 0 45 48" fill="none" xmlns="http://www.w3.org/2000/svg">
<path d="M42.355 5.01891C37.9157 3.80774 33.4731 2.60662 29.0321 1.39712C27.3401 0.936439 25.6515 0.465707 23.9613 0H22.869C22.8322 0.0268033 22.7987 0.0653329 22.7585 0.0753842C21.4384 0.402049 20.641 1.25473 20.3026 2.57646C20.1049 3.34873 19.8922 4.11597 19.6878 4.88657C19.3578 6.12789 19.0311 7.3709 18.6961 8.634C18.7195 8.65745 18.743 8.68258 18.7665 8.70603H18.877C19.0965 8.70603 19.3092 8.72948 19.5119 8.77304C19.6426 8.77304 19.7716 8.77137 19.9006 8.76634C20.053 8.70771 20.2071 8.66415 20.3629 8.634C20.584 7.79472 20.7934 6.999 21.0028 6.20495C21.2843 5.13785 21.5624 4.07074 21.8522 3.00532C22.1571 1.8846 22.921 1.43732 24.0283 1.73719C30.0205 3.36213 36.011 4.98876 41.9999 6.61873C43.1993 6.94539 43.6298 7.69923 43.3149 8.89533C42.3818 12.4367 41.4487 15.9798 40.5123 19.5195C38.3379 27.7414 36.1618 35.9649 33.9857 44.1868C33.6657 45.3963 32.9202 45.8453 31.7359 45.5287C30.456 45.1869 29.1778 44.8402 27.898 44.4934C27.7506 44.6894 27.5881 44.877 27.4122 45.0496C27.2597 45.2573 27.0939 45.4667 26.9079 45.6945C26.861 45.7532 26.8091 45.8068 26.7588 45.8637C28.29 46.2792 29.8211 46.6963 31.3523 47.1101C33.3558 47.6528 34.9841 46.6946 35.5235 44.6559C38.6243 32.9245 41.7234 21.1913 44.8226 9.4582C45.4122 7.22683 44.5177 5.60858 42.355 5.01891Z" fill="#FB7E3C"/>
<path d="M38.4015 13.1772C37.9341 12.9209 37.522 12.8874 37.1183 13.2325C36.4315 13.8171 35.6776 13.9227 34.8467 13.5474C34.5921 13.4335 34.3073 13.3883 34.0024 13.3012C34.8718 11.8638 35.7279 10.4516 36.6057 8.99925C36.2422 8.89706 35.9289 8.77645 35.6039 8.73289C35.4665 8.71446 35.2789 8.82503 35.1633 8.93224C33.9421 10.0563 32.7259 11.1854 31.5231 12.3279C31.3187 12.5222 31.1395 12.5741 30.8798 12.4803C30.6403 12.3932 30.3907 12.3296 30.1411 12.2776C29.8663 12.2223 29.6117 12.1503 29.3772 12.0381C29.3185 12.0515 29.2582 12.0615 29.1979 12.0699C29.1929 12.0699 29.1896 12.0716 29.1845 12.0716C29.1259 12.0799 29.0656 12.0866 29.007 12.09C28.9969 12.425 28.9131 12.745 28.7741 13.0398C28.9986 13.2844 29.218 13.534 29.4425 13.7786C29.8781 13.8959 30.2902 13.9863 30.6855 14.1287C30.7978 14.1689 30.8899 14.3549 30.9318 14.4922C31.4109 16.0334 31.89 17.5746 32.3389 19.1259C32.4462 19.4961 32.6153 19.7038 33.0006 19.749C33.21 19.7742 33.4144 19.8479 33.6372 19.9048V14.906C34.2855 15.0802 34.9288 15.2478 35.5687 15.432C35.6408 15.4521 35.696 15.5627 35.743 15.6414C35.9205 15.943 36.1232 16.2361 36.2572 16.5561C36.4516 17.0218 36.8034 17.1826 37.3193 17.2044C37.2875 16.5996 37.2356 16.0033 37.2356 15.4069C37.2356 15.1707 37.2959 14.9043 37.4131 14.7016C37.7147 14.1807 38.0648 13.6881 38.4015 13.1772Z" fill="#FB7E3C"/>
<path d="M36.3293 25.3877C35.1382 29.9777 33.9639 34.5091 32.7695 39.1143C32.1296 38.9468 31.5232 38.7876 30.8464 38.61C32.0391 34.0099 33.2218 29.45 34.4129 24.8566C35.0562 25.0342 35.6475 25.1984 36.3293 25.3877Z" fill="black"/>
<path d="M31.766 29.1435C31.0658 28.9575 30.4242 28.7866 29.6888 28.5906C30.0523 27.2203 30.4074 25.8802 30.786 24.4546C31.4745 24.6305 32.1295 24.7997 32.875 24.9906C32.4998 26.3911 32.1379 27.748 31.766 29.1435Z" fill="black"/>
<path d="M29.2633 25.6038C29.2633 30.74 29.2482 35.8745 29.2784 41.0107C29.2834 41.8332 28.9551 42.3274 28.2548 42.6289C27.9801 42.7462 27.8913 42.902 27.898 43.1985C27.9181 44.1735 27.9081 45.1501 27.9047 46.1268C27.8997 47.1771 27.238 47.7852 26.2127 47.611C23.5693 47.162 20.9308 46.6812 18.2907 46.2122C14.5533 45.5471 10.8143 44.8804 7.0769 44.217C5.28443 43.8987 3.48861 43.5955 1.69614 43.2739C0.905445 43.1332 0.304047 42.3978 0.255466 41.5501C0.248766 41.4228 0.252116 41.2955 0.252116 41.1682C0.252116 30.8254 0.252116 20.4844 0.252116 10.1417C0.252116 8.69098 0.960727 7.98237 2.41313 7.98237C10.6468 7.98237 18.8821 7.98237 27.1157 7.98237C28.543 7.98237 29.2633 8.69433 29.2633 10.1116C29.2633 15.2762 29.2633 20.4392 29.2633 25.6038ZM1.17348 25.6658C1.17348 30.8154 1.17348 35.965 1.17348 41.1145C1.17348 42.128 1.44486 42.4011 2.45166 42.4011C10.0638 42.4011 17.6742 42.4011 25.2864 42.4028C26.2094 42.4028 27.0688 42.1599 27.9047 41.7913C28.228 41.6489 28.352 41.4479 28.352 41.076C28.3403 30.7618 28.3436 20.4492 28.3419 10.135C28.3419 9.21699 28.0337 8.90205 27.1324 8.90205C18.8837 8.90205 10.6367 8.90205 2.388 8.90205C1.48172 8.90205 1.17348 9.21532 1.17348 10.1317C1.17348 15.3097 1.17348 20.4878 1.17348 25.6658ZM26.9817 43.1097C26.8091 43.1432 26.6734 43.1868 26.5377 43.1918C26.1859 43.2035 26.0469 43.3509 26.0771 43.7195C26.1122 44.14 26.0921 44.5671 26.0821 44.991C26.0704 45.4617 25.9263 45.6041 25.4556 45.5706C24.752 45.5203 24.0501 45.4466 23.3465 45.3779C20.8739 45.135 18.4029 44.8905 15.9303 44.6492C15.4981 44.6073 15.0643 44.5822 14.6321 44.5487C14.6656 44.6274 14.7024 44.6425 14.7426 44.6492C17.3928 45.1216 20.043 45.5957 22.6931 46.0648C23.9144 46.2809 25.1373 46.4919 26.3585 46.708C26.7203 46.7717 26.9683 46.641 26.9766 46.2691C26.9951 45.2255 26.9817 44.1818 26.9817 43.1097ZM25.1373 43.3426C20.8219 43.3426 16.5418 43.3426 12.26 43.3426C12.2583 43.3509 12.2566 43.3593 12.2549 43.3677C16.5384 43.7815 20.8219 44.1969 25.1373 44.614C25.1373 44.1768 25.1373 43.7865 25.1373 43.3426Z" fill="black" stroke="black" stroke-width="0.499882" stroke-miterlimit="10"/>
<path d="M14.7744 32.8592C10.8494 32.8776 7.15394 30.1571 7.06348 25.1131C6.98809 20.9753 10.558 17.4993 14.7426 17.4925C18.9457 17.4842 22.534 20.9652 22.4552 25.1231C22.3564 30.1872 18.6391 32.8692 14.7744 32.8592ZM16.8333 22.5064C15.4093 22.5064 14.0709 22.5064 12.6788 22.5064C12.6201 23.2469 12.5632 23.9706 12.5062 24.706C14.044 24.706 15.5032 24.706 17.0209 24.706C16.9556 23.9505 16.8936 23.2368 16.8333 22.5064ZM17.0175 25.6927C15.4881 25.6927 14.0273 25.6927 12.4978 25.6927C12.5615 26.4482 12.6218 27.1735 12.6838 27.9073C14.0876 27.9073 15.4278 27.9073 16.8316 27.9073C16.8936 27.1735 16.9539 26.4499 17.0175 25.6927ZM16.6188 21.5482C16.3927 20.6168 16.1381 19.7256 15.5735 18.9617C15.0425 18.243 14.4662 18.2447 13.9368 18.9684C13.379 19.7323 13.1143 20.6168 12.9049 21.5482C14.1563 21.5482 15.3691 21.5482 16.6188 21.5482ZM16.6155 28.8622C15.3524 28.8622 14.1395 28.8622 12.9032 28.8622C13.1143 29.7701 13.3689 30.6328 13.9 31.385C14.4628 32.1824 15.0441 32.1858 15.6104 31.3934C16.1448 30.6446 16.3977 29.7785 16.6155 28.8622ZM11.754 22.4863C10.7472 22.4863 9.73375 22.483 8.72025 22.493C8.64152 22.493 8.5209 22.5634 8.4941 22.6304C8.23779 23.2971 8.01332 23.9722 8.03509 24.7093C9.24459 24.7093 10.4089 24.7093 11.5714 24.7093C11.6334 23.9605 11.6921 23.2435 11.754 22.4863ZM17.763 22.4863C17.825 23.2485 17.8853 23.9722 17.9456 24.7127C19.1316 24.7127 20.2926 24.7127 21.5892 24.7127C21.3932 23.9806 21.2189 23.3072 21.0263 22.6388C21.0079 22.5718 20.8839 22.493 20.8068 22.493C19.7933 22.483 18.7782 22.4863 17.763 22.4863ZM11.7524 27.9207C11.6904 27.1501 11.6318 26.4365 11.5731 25.7027C10.3904 25.7027 9.21946 25.7027 7.92286 25.7027C8.1222 26.4281 8.29643 27.0898 8.49242 27.7431C8.51588 27.8202 8.65157 27.9123 8.737 27.9123C9.73543 27.9257 10.7355 27.9207 11.7524 27.9207ZM17.763 27.9207C18.7765 27.9207 19.7766 27.924 20.7767 27.9157C20.8571 27.9157 20.9811 27.852 21.0079 27.7867C21.2759 27.1216 21.492 26.4432 21.4853 25.6927C20.2842 25.6927 19.1199 25.6927 17.9439 25.6927C17.8836 26.4331 17.825 27.1467 17.763 27.9207ZM11.8495 21.5532C12.2181 20.5615 12.5665 19.6251 12.9183 18.6736C11.3001 19.1611 10.0219 20.0874 9.05697 21.5532C10.0654 21.5532 10.9818 21.5532 11.8495 21.5532ZM16.6054 18.6819C16.9623 19.6502 17.3057 20.5833 17.6524 21.5281C18.5353 21.5281 19.4684 21.5281 20.4517 21.5281C19.47 20.0841 18.2053 19.1443 16.6054 18.6819ZM16.6004 31.7284C18.2103 31.2493 19.4851 30.3179 20.45 28.8605C19.4449 28.8605 18.5168 28.8605 17.6591 28.8605C17.3006 29.8321 16.9572 30.7652 16.6004 31.7284ZM9.04859 28.8538C10.0537 30.3179 11.3118 31.2694 12.9133 31.7217C12.5565 30.7585 12.208 29.8153 11.8529 28.8538C10.9768 28.8538 10.0604 28.8538 9.04859 28.8538Z" fill="black"/>
<path d="M14.2903 36.5295C12.1544 36.5295 10.0186 36.5295 7.88267 36.5278C7.72688 36.5278 7.53925 36.5663 7.42534 36.4926C7.26955 36.3921 7.0903 36.2112 7.0769 36.0504C7.06685 35.9214 7.26955 35.7522 7.41194 35.6416C7.48565 35.5846 7.62972 35.6098 7.74363 35.6098C12.1142 35.6081 16.4848 35.6081 20.8554 35.6098C20.9677 35.6098 21.1168 35.5813 21.1855 35.6399C21.3279 35.7605 21.5105 35.9264 21.5222 36.0855C21.5322 36.2162 21.3429 36.4038 21.1972 36.4909C21.0799 36.5613 20.894 36.5278 20.7399 36.5278C18.5889 36.5311 16.4396 36.5295 14.2903 36.5295Z" fill="black"/>
<path d="M22.4703 13.4888C22.4703 13.8875 22.4687 14.2795 22.4703 14.6715C22.472 14.9981 22.3447 15.2477 21.9963 15.2427C21.6445 15.2377 21.544 14.9881 21.5473 14.6564C21.5574 13.5424 21.549 12.4267 21.5523 11.311C21.554 10.8554 21.7014 10.7046 22.1571 10.6979C22.5374 10.6912 22.9193 10.6862 23.2996 10.6996C23.9077 10.7197 24.2712 11.0849 24.2578 11.6946C24.2461 12.2156 24.4052 12.7768 23.9663 13.2258C23.9211 13.2727 23.9479 13.4117 23.9697 13.5022C24.0568 13.8724 24.159 14.2376 24.2444 14.6078C24.3147 14.9127 24.2226 15.1523 23.8993 15.226C23.5894 15.2963 23.4252 15.1104 23.3482 14.8356C23.2577 14.5107 23.1522 14.1857 23.1052 13.8523C23.0533 13.4888 22.8925 13.3564 22.4703 13.4888ZM22.4988 11.641C22.4988 11.9342 22.4988 12.2056 22.4988 12.492C22.787 12.492 23.0466 12.492 23.318 12.492C23.318 12.1939 23.318 11.9208 23.318 11.641C23.0299 11.641 22.7702 11.641 22.4988 11.641Z" fill="black"/>
<path d="M13.7978 14.3113C13.9251 13.8941 13.8162 13.6161 13.3941 13.4871C13.2617 13.4452 13.1461 13.3463 13.0138 13.3028C12.2114 13.0381 11.94 12.4836 12.0338 11.6644C12.0975 11.1066 12.3957 10.7397 12.9568 10.7012C13.1394 10.6895 13.3237 10.6978 13.508 10.6978C14.4846 10.6978 14.7912 11.0279 14.761 12.0095C14.751 12.3161 14.6203 12.5138 14.3255 12.5272C14.0022 12.5406 13.8481 12.3278 13.8397 12.0112C13.8363 11.899 13.8397 11.7867 13.8397 11.646C13.5448 11.646 13.2718 11.646 13.0038 11.646C12.8764 12.0648 12.987 12.3412 13.4075 12.4702C13.5281 12.5071 13.6303 12.5959 13.7509 12.6344C14.5935 12.9024 14.8699 13.4887 14.7661 14.3347C14.7041 14.844 14.4076 15.2025 13.8866 15.251C13.6906 15.2695 13.4912 15.2578 13.2936 15.2578C12.3169 15.2578 12.012 14.9277 12.0422 13.9444C12.0522 13.6378 12.1812 13.4435 12.4777 13.4284C12.7793 13.4134 12.9401 13.606 12.9619 13.9042C12.9719 14.0298 12.9636 14.1571 12.9636 14.3113C13.2567 14.3113 13.5298 14.3113 13.7978 14.3113Z" fill="black"/>
<path d="M10.687 11.6343C10.3704 11.6343 10.1074 11.6343 9.841 11.6343C9.68856 12.0481 9.7941 12.3211 10.2146 12.4635C10.3737 12.5171 10.5195 12.6093 10.6719 12.6847C11.548 13.1202 11.6955 13.3849 11.6033 14.3515C11.538 15.035 11.151 15.2628 10.0655 15.2594C9.29824 15.2578 8.92969 14.9797 8.87776 14.3515C8.86268 14.1689 8.8275 13.9578 8.90121 13.8087C8.98162 13.6479 9.1793 13.4486 9.32671 13.4486C9.47413 13.4486 9.66008 13.6513 9.75389 13.8087C9.83095 13.9377 9.79745 14.1337 9.8142 14.318C10.099 14.318 10.362 14.318 10.6434 14.318C10.7674 13.9293 10.697 13.6479 10.2682 13.5038C10.0688 13.4368 9.88791 13.3196 9.69861 13.2241C8.91126 12.8304 8.64491 12.1888 8.91461 11.3344C8.91964 11.321 8.92299 11.3076 8.92802 11.2942C9.14244 10.718 10.1141 10.465 10.9651 10.7632C11.4861 10.9458 11.8027 11.6594 11.5564 12.2089C11.4894 12.358 11.2297 12.5238 11.0807 12.5054C10.9349 12.487 10.7858 12.2608 10.697 12.0933C10.6401 11.9827 10.687 11.8169 10.687 11.6343Z" fill="black"/>
<path d="M21.1134 13.0013C21.1134 13.4251 21.1234 13.849 21.11 14.2711C21.0916 14.8742 20.7247 15.2344 20.12 15.2578C18.7798 15.3081 18.2907 15.2143 18.3677 13.591C18.3962 12.9846 18.3644 12.3765 18.3744 11.77C18.3862 11.0497 18.7329 10.7096 19.4449 10.6979C20.9274 10.6744 21.1134 10.8554 21.1134 12.3228C21.1134 12.549 21.1134 12.7752 21.1134 13.0013ZM19.3259 11.6377C19.3259 12.5524 19.3259 13.4318 19.3259 14.3197C19.6225 14.3197 19.8855 14.3197 20.1702 14.3197C20.1702 13.4201 20.1702 12.539 20.1702 11.6377C19.8871 11.6377 19.6241 11.6377 19.3259 11.6377Z" fill="black"/>
<path d="M8.50416 14.8942C8.41202 14.983 8.28973 15.1957 8.14734 15.2091C7.98317 15.2259 7.67158 15.0919 7.64813 14.978C7.50071 14.2677 6.99648 14.3297 6.46544 14.3213C6.07511 14.3163 5.83389 14.3967 5.73337 14.8071C5.67139 15.0617 5.51057 15.2778 5.19396 15.2359C4.87399 15.1941 4.71317 14.8976 4.85054 14.5558C5.29112 13.4586 5.74175 12.363 6.21248 11.2791C6.27279 11.1384 6.47549 10.986 6.61956 10.9776C6.76027 10.9692 6.98978 11.1066 7.04673 11.2372C7.53589 12.3596 7.9949 13.4971 8.46228 14.6295C8.48406 14.6815 8.48071 14.7418 8.50416 14.8942ZM6.64301 12.6277C6.51904 12.9275 6.43193 13.1419 6.32975 13.3865C6.55757 13.3865 6.7385 13.3865 6.95627 13.3865C6.85241 13.1352 6.76362 12.9208 6.64301 12.6277Z" fill="black"/>
<path d="M3.45509 13.4385C3.45509 13.9042 3.45342 14.2979 3.45509 14.6933C3.45677 15.0049 3.32275 15.2394 2.99944 15.2444C2.65099 15.2494 2.5287 15.0149 2.53038 14.6765C2.54043 13.5458 2.54043 12.4133 2.53038 11.2826C2.52703 10.8906 2.70963 10.7046 3.0899 10.7013C3.48524 10.6979 3.88227 10.6912 4.27762 10.7029C4.88907 10.7214 5.23751 11.0866 5.24588 11.6963C5.24923 11.9794 5.25426 12.2625 5.24421 12.5457C5.22578 13.0315 4.91922 13.3598 4.43341 13.4201C4.27929 13.4385 4.1235 13.4369 3.9677 13.4385C3.81693 13.4402 3.66282 13.4385 3.45509 13.4385ZM3.47352 11.641C3.47352 11.9409 3.47352 12.2039 3.47352 12.4837C3.76165 12.4837 4.03136 12.4837 4.30777 12.4837C4.30777 12.1872 4.30777 11.9258 4.30777 11.641C4.02969 11.641 3.77003 11.641 3.47352 11.641Z" fill="black"/>
<path d="M16.1147 13.4285C16.1147 13.9076 16.108 14.3163 16.1163 14.7234C16.123 15.0299 15.9823 15.2293 15.6858 15.2427C15.3625 15.2578 15.1983 15.0484 15.1966 14.7318C15.1916 13.5742 15.1933 12.415 15.195 11.2574C15.1966 10.8989 15.3826 10.7046 15.7428 10.6995C16.1666 10.6928 16.5904 10.6828 17.0142 10.7029C17.5403 10.728 17.8803 11.0597 17.9188 11.5824C17.9423 11.9057 17.9423 12.2324 17.9188 12.5557C17.8803 13.0834 17.5821 13.3799 17.0561 13.4218C16.7646 13.4469 16.4698 13.4285 16.1147 13.4285ZM16.1314 12.482C16.4413 12.482 16.7127 12.482 16.9908 12.482C16.9908 12.1821 16.9908 11.9208 16.9908 11.6427C16.6943 11.6427 16.4212 11.6427 16.1314 11.6427C16.1314 11.9291 16.1314 12.1922 16.1314 12.482Z" fill="black"/>
<path d="M14.292 38.7843C13.1344 38.7843 11.9752 38.7793 10.8176 38.7877C10.4926 38.7893 10.2413 38.7089 10.2396 38.337C10.238 37.9718 10.4842 37.863 10.8075 37.8646C13.1378 37.8646 15.468 37.8663 17.7982 37.863C18.1232 37.863 18.3795 37.9769 18.3828 38.3253C18.3862 38.6738 18.1449 38.791 17.8082 38.7877C16.6356 38.7793 15.4629 38.7843 14.292 38.7843Z" fill="black"/>
<path d="M25.6265 11.6158C25.4204 11.6158 25.2479 11.6678 25.1457 11.6041C24.9765 11.5003 24.7604 11.3361 24.7369 11.1719C24.7185 11.0379 24.943 10.7431 25.0736 10.7347C25.7337 10.6878 26.4004 10.6844 27.0588 10.733C27.1928 10.7431 27.3804 11.0278 27.4089 11.2071C27.4508 11.46 27.2514 11.6108 26.9817 11.6158C26.8561 11.6175 26.7304 11.6158 26.5445 11.6158C26.5445 12.0681 26.5445 12.5003 26.5445 12.9326C26.5445 13.5256 26.5461 14.1186 26.5428 14.7116C26.5411 15.0249 26.3937 15.2477 26.0704 15.2427C25.7487 15.2376 25.6181 15.0232 25.6198 14.6999C25.6315 13.6881 25.6265 12.6746 25.6265 11.6158Z" fill="black"/>
</svg>
