<svg width="20" height="20" viewBox="0 0 20 20" fill="none" xmlns="http://www.w3.org/2000/svg">
<path d="M9.33418 0C9.77644 0 10.2198 0 10.6621 0C10.8998 0.0297155 11.1375 0.0548594 11.3729 0.0902895C14.0093 0.490306 16.1817 1.7155 17.8353 3.80702C19.5872 6.02311 20.2762 8.56264 19.8991 11.3582C19.5426 14.0006 18.2901 16.171 16.2011 17.8282C13.9818 19.5882 11.4392 20.2694 8.6348 19.9048C6.62809 19.6443 4.86136 18.8168 3.35519 17.4647C1.56789 15.8612 0.481108 13.868 0.111992 11.4896C0.070852 11.2153 0.0377116 10.9387 0 10.6633C0 10.221 0 9.77755 0 9.33525C0.0297121 9.09867 0.0559959 8.86094 0.0902792 8.62436C0.377116 6.65856 1.15877 4.91449 2.47296 3.42414C4.0797 1.60464 6.08642 0.494878 8.48967 0.115433C8.77079 0.072003 9.05306 0.0388588 9.33418 0ZM1.36904 10.0061C1.37933 14.7595 5.26705 18.6419 10.0061 18.6305C14.7589 18.6191 18.6409 14.7309 18.6295 9.99127C18.6181 5.23793 14.7304 1.35549 9.99242 1.36691C5.23848 1.37949 1.35876 5.26651 1.36904 10.0061Z" fill="#FB7E3C"/>
</svg>
