<svg width="13" height="13" viewBox="0 0 13 13" fill="none" xmlns="http://www.w3.org/2000/svg">
<path d="M5.41339 0C2.43007 0 0 2.43007 0 5.41339C0 8.39671 2.43007 10.8268 5.41339 10.8268C6.71071 10.8268 7.90213 10.3661 8.83588 9.60136L12.0681 12.8335C12.1179 12.8855 12.1777 12.927 12.2438 12.9555C12.3099 12.9841 12.3811 12.9992 12.4531 13C12.5251 13.0007 12.5965 12.987 12.6632 12.9598C12.7299 12.9326 12.7905 12.8923 12.8414 12.8414C12.8923 12.7905 12.9326 12.7299 12.9598 12.6632C12.987 12.5965 13.0007 12.5251 13 12.4531C12.9992 12.3811 12.9841 12.3099 12.9555 12.2438C12.927 12.1777 12.8855 12.1179 12.8335 12.0681L9.60136 8.83588C10.3661 7.90213 10.8268 6.71071 10.8268 5.41339C10.8268 2.43007 8.39671 0 5.41339 0ZM5.41339 1.08268C7.81159 1.08268 9.7441 3.01519 9.7441 5.41339C9.7441 7.81159 7.81159 9.7441 5.41339 9.7441C3.01519 9.7441 1.08268 7.81159 1.08268 5.41339C1.08268 3.01519 3.01519 1.08268 5.41339 1.08268Z" fill="#B3B3B3"/>
</svg>
