<svg width="8" height="11" viewBox="0 0 8 11" fill="none" xmlns="http://www.w3.org/2000/svg">
<path d="M4 0C1.791 0 0 1.791 0 4C0 4.86983 0.285167 5.668 0.759167 6.32167C0.767667 6.33733 0.769 6.35483 0.778667 6.36983L3.44533 10.3698C3.569 10.5553 3.77733 10.6667 4 10.6667C4.22267 10.6667 4.431 10.5553 4.55467 10.3698L7.22133 6.36983C7.23117 6.35483 7.23233 6.33733 7.24083 6.32167C7.71483 5.668 8 4.86983 8 4C8 1.791 6.209 0 4 0ZM4 5.33333C3.26367 5.33333 2.66667 4.73633 2.66667 4C2.66667 3.26367 3.26367 2.66667 4 2.66667C4.73633 2.66667 5.33333 3.26367 5.33333 4C5.33333 4.73633 4.73633 5.33333 4 5.33333Z" fill="#FB7E3C"/>
</svg>
