<svg width="18" height="20" viewBox="0 0 18 20" fill="none" xmlns="http://www.w3.org/2000/svg">
<path fill-rule="evenodd" clip-rule="evenodd" d="M9 1.47937C4.81281 1.47937 1.28068 4.52132 1.56837 8.3097C1.60963 8.85304 1.67131 9.32601 1.75535 9.70133C2.17935 11.5948 3.51026 13.4758 5.00934 15.0726C6.49565 16.6558 8.07816 17.8875 8.8959 18.4848C8.96126 18.5326 9.03874 18.5326 9.1041 18.4848C9.92183 17.8875 11.5043 16.6558 12.9907 15.0726C14.4897 13.4758 15.8206 11.5948 16.2446 9.70133C16.3287 9.32601 16.3904 8.85304 16.4316 8.3097C16.7193 4.52132 13.1872 1.47937 9 1.47937ZM0.0211454 8.41656C-0.345912 3.5831 4.12259 0 9 0C13.8774 0 18.3459 3.5831 17.9789 8.41656C17.9349 8.99549 17.8664 9.54275 17.7617 10.0103C17.2534 12.2803 15.7089 14.3951 14.1464 16.0594C12.5712 17.7373 10.9062 19.0319 10.0474 19.6592C9.42544 20.1136 8.57455 20.1136 7.95258 19.6592C7.09382 19.0319 5.42877 17.7373 3.85358 16.0594C2.29114 14.3951 0.74659 12.2803 0.238281 10.0103C0.133594 9.54275 0.0651105 8.99549 0.0211454 8.41656Z" fill="white"/>
<path fill-rule="evenodd" clip-rule="evenodd" d="M9 7.39685C8.28604 7.39685 7.70727 7.94879 7.70727 8.62965C7.70727 9.31051 8.28604 9.86246 9 9.86246C9.71395 9.86246 10.2927 9.31051 10.2927 8.62965C10.2927 7.94879 9.71395 7.39685 9 7.39685ZM6.15599 8.62965C6.15599 7.13176 7.4293 5.91748 9 5.91748C10.5707 5.91748 11.844 7.13176 11.844 8.62965C11.844 10.1275 10.5707 11.3418 9 11.3418C7.4293 11.3418 6.15599 10.1275 6.15599 8.62965Z" fill="white"/>
</svg>
