<svg width="22" height="22" viewBox="0 0 22 22" fill="none" xmlns="http://www.w3.org/2000/svg">
<g clip-path="url(#clip0_0_1662)">
<path d="M20.4129 18.6603H1.58729V15.5213L2.25291 13.385H17.3417C17.78 13.385 18.1353 13.0297 18.1353 12.5914C18.1353 12.153 17.78 11.7978 17.3417 11.7978H2.74855L3.50967 9.35589H4.1944C4.58117 9.7121 5.09781 9.9327 5.66507 9.9327H8.46509C9.03331 9.9327 9.549 9.71306 9.93577 9.35589H12.0616C12.4493 9.7121 12.965 9.9327 13.5322 9.9327H16.3323C16.8995 9.9327 17.4162 9.71306 17.8029 9.35589H18.4877L20.411 15.5213V18.6603H20.4129ZM9.0505 7.76871C9.0505 8.08576 8.78883 8.34361 8.467 8.34361H5.66698C5.34515 8.34361 5.08253 8.08576 5.08253 7.76871C5.08253 7.45165 5.3442 7.19381 5.66698 7.19381H8.467C8.78883 7.19381 9.0505 7.45165 9.0505 7.76871ZM16.9186 7.76871C16.9186 8.08576 16.657 8.34361 16.3351 8.34361H13.5351C13.2133 8.34361 12.9507 8.08576 12.9507 7.76871C12.9507 7.45165 13.2133 7.19381 13.5351 7.19381H16.3351C16.657 7.19381 16.9186 7.45165 16.9186 7.76871ZM3.63669 3.77114C3.63669 2.5669 4.62509 1.58709 5.83984 1.58709H16.1613C17.3761 1.58709 18.3645 2.5669 18.3645 3.77114V7.00663C18.0541 6.18916 17.2624 5.60566 16.3351 5.60566H13.5351C12.3385 5.60566 11.3644 6.57497 11.3635 7.76775H10.6386C10.6386 6.57593 9.66455 5.60566 8.467 5.60566H5.66698C4.73969 5.60566 3.94801 6.18916 3.63669 7.00663V3.77114ZM21.9972 15.3628C21.9963 15.336 21.9934 15.3083 21.9886 15.2816C21.9848 15.2539 21.9791 15.2262 21.9715 15.1994C21.9686 15.188 21.9676 15.1756 21.9638 15.1641L19.9517 8.71128V3.77209C19.9517 1.69213 18.2508 0.000854896 16.1613 0.000854896H5.83888C3.74937 -0.000100089 2.04854 1.69213 2.04854 3.77114V8.71032L0.0363899 15.1641C0.03257 15.1756 0.03257 15.188 0.0287501 15.1994C0.0220652 15.2262 0.0163352 15.2539 0.0115603 15.2816C0.00774038 15.3083 0.00487542 15.336 0.00296545 15.3628C0.00296545 15.3752 -0.000854492 15.3876 -0.000854492 15.4V19.453C-0.000854492 19.8913 0.3544 20.2465 0.792738 20.2465H1.60543V21.2054C1.60543 21.6437 1.96069 21.9989 2.39902 21.9989C2.83736 21.9989 3.19262 21.6437 3.19262 21.2054V20.2465H18.8057V21.2054C18.8057 21.6437 19.1609 21.9989 19.5993 21.9989C20.0376 21.9989 20.3929 21.6437 20.3929 21.2054V20.2465H21.2056C21.6439 20.2465 21.9991 19.8913 21.9991 19.453V15.4C21.9991 15.3876 21.9963 15.3752 21.9953 15.3628H21.9972Z" fill="#FF8F46"/>
</g>
<defs>
<clipPath id="clip0_0_1662">
<rect width="22" height="22" fill="white"/>
</clipPath>
</defs>
</svg>
