<svg width="21" height="21" viewBox="0 0 21 21" fill="none" xmlns="http://www.w3.org/2000/svg">
<path fill-rule="evenodd" clip-rule="evenodd" d="M11.2524 1.88512C10.7976 1.57196 10.2024 1.57196 9.74758 1.88512L2.25053 7.04764C1.90079 7.28847 1.68784 7.67657 1.6721 8.09331C1.61767 9.53385 1.55999 12.0565 1.71841 13.847C1.83792 15.1978 2.15602 16.9833 2.41441 18.2968C2.5344 18.9068 3.06534 19.3498 3.69639 19.3498H7.18655C7.33524 19.3498 7.45578 19.2266 7.45578 19.0747V14.6741C7.45578 13.6108 8.29955 12.7488 9.34039 12.7488H11.9795C13.0204 12.7488 13.8642 13.6108 13.8642 14.6741V19.0747C13.8642 19.2266 13.9847 19.3498 14.1334 19.3498H17.3036C17.9347 19.3498 18.4656 18.9068 18.5856 18.2968C18.844 16.9833 19.1621 15.1978 19.2816 13.847C19.44 12.0565 19.3823 9.53385 19.3279 8.09331C19.3122 7.67658 19.0992 7.28847 18.7495 7.04764L11.2524 1.88512ZM8.84468 0.516717C9.84519 -0.172239 11.1548 -0.172239 12.1553 0.516717L19.6524 5.67924C20.418 6.20646 20.906 7.07328 20.9421 8.02966C20.9964 9.46859 21.0592 12.0875 20.8904 13.9956C20.7624 15.4419 20.4289 17.3024 20.1693 18.622C19.8934 20.0246 18.682 21 17.3036 21H14.1334C13.0925 21 12.2488 20.138 12.2488 19.0747V14.6741C12.2488 14.5222 12.1282 14.399 11.9795 14.399H9.34039C9.1917 14.399 9.07116 14.5222 9.07116 14.6741V19.0747C9.07116 20.138 8.22739 21 7.18655 21H3.69639C2.31799 21 1.10659 20.0246 0.830683 18.622C0.571117 17.3024 0.237555 15.4419 0.109584 13.9956C-0.0592448 12.0875 0.00354995 9.46859 0.0579127 8.02966C0.0940452 7.07328 0.581988 6.20646 1.34763 5.67924L8.84468 0.516717Z" fill="white"/>
</svg>
