<svg width="16" height="16" viewBox="0 0 16 16" fill="none" xmlns="http://www.w3.org/2000/svg">
<path d="M5.53846 10.4615C5.53846 10.9147 5.17111 11.2821 4.71795 11.2821C4.26479 11.2821 3.89744 10.9147 3.89744 10.4615C3.89744 10.0084 4.26479 9.64103 4.71795 9.64103C5.17111 9.64103 5.53846 10.0084 5.53846 10.4615Z" fill="#242424"/>
<path d="M5.53846 7.17949C5.53846 7.63264 5.17111 8 4.71795 8C4.26479 8 3.89744 7.63264 3.89744 7.17949C3.89744 6.72633 4.26479 6.35897 4.71795 6.35897C5.17111 6.35897 5.53846 6.72633 5.53846 7.17949Z" fill="#242424"/>
<path d="M8.82051 10.4615C8.82051 10.9147 8.45316 11.2821 8 11.2821C7.54684 11.2821 7.17949 10.9147 7.17949 10.4615C7.17949 10.0084 7.54684 9.64103 8 9.64103C8.45316 9.64103 8.82051 10.0084 8.82051 10.4615Z" fill="#242424"/>
<path d="M8.82051 7.17949C8.82051 7.63264 8.45316 8 8 8C7.54684 8 7.17949 7.63264 7.17949 7.17949C7.17949 6.72633 7.54684 6.35897 8 6.35897C8.45316 6.35897 8.82051 6.72633 8.82051 7.17949Z" fill="#242424"/>
<path d="M12.1026 7.17949C12.1026 7.63264 11.7352 8 11.2821 8C10.8289 8 10.4615 7.63264 10.4615 7.17949C10.4615 6.72633 10.8289 6.35897 11.2821 6.35897C11.7352 6.35897 12.1026 6.72633 12.1026 7.17949Z" fill="#242424"/>
<path fill-rule="evenodd" clip-rule="evenodd" d="M8 2.05128C6.26324 2.05128 3.89042 2.20178 2.40944 2.31014C1.92205 2.3458 1.53801 2.72666 1.49843 3.21281C1.3842 4.61599 1.23077 6.80347 1.23077 8.41026C1.23077 10.017 1.3842 12.2045 1.49843 13.6077C1.53801 14.0939 1.92205 14.4747 2.40944 14.5104C3.89042 14.6187 6.26324 14.7692 8 14.7692C9.73676 14.7692 12.1096 14.6187 13.5906 14.5104C14.078 14.4747 14.462 14.0939 14.5016 13.6077C14.6158 12.2045 14.7692 10.017 14.7692 8.41026C14.7692 6.80347 14.6158 4.61599 14.5016 3.21281C14.462 2.72666 14.078 2.3458 13.5906 2.31014C12.1096 2.20178 9.73676 2.05128 8 2.05128ZM2.31962 1.08265C3.80127 0.97424 6.21386 0.820513 8 0.820513C9.78614 0.820513 12.1987 0.97424 13.6804 1.08265C14.7719 1.16252 15.6394 2.02115 15.7283 3.11295C15.8426 4.51724 16 6.7487 16 8.41026C16 10.0718 15.8426 12.3033 15.7283 13.7076C15.6394 14.7994 14.7719 15.658 13.6804 15.7379C12.1987 15.8463 9.78614 16 8 16C6.21386 16 3.80127 15.8463 2.31962 15.7379C1.22806 15.658 0.3606 14.7994 0.271718 13.7076C0.157397 12.3033 0 10.0718 0 8.41026C0 6.7487 0.157397 4.51724 0.271718 3.11295C0.3606 2.02115 1.22806 1.16252 2.31962 1.08265Z" fill="#242424"/>
<path fill-rule="evenodd" clip-rule="evenodd" d="M5.53846 0C5.87833 4.14783e-08 6.15385 0.275517 6.15385 0.615385V2.66667C6.15385 3.00653 5.87833 3.28205 5.53846 3.28205C5.19859 3.28205 4.92308 3.00653 4.92308 2.66667V0.615385C4.92308 0.275517 5.19859 -4.14783e-08 5.53846 0Z" fill="#242424"/>
<path fill-rule="evenodd" clip-rule="evenodd" d="M10.4615 0C10.8014 4.14783e-08 11.0769 0.275517 11.0769 0.615385L11.0769 2.66667C11.0769 3.00653 10.8014 3.28205 10.4615 3.28205C10.1217 3.28205 9.84615 3.00653 9.84615 2.66667L9.84616 0.615385C9.84616 0.275517 10.1217 -4.14783e-08 10.4615 0Z" fill="#242424"/>
</svg>
