<svg width="8" height="8" viewBox="0 0 8 8" fill="none" xmlns="http://www.w3.org/2000/svg">
<path fill-rule="evenodd" clip-rule="evenodd" d="M3.75134 1.15449C3.06761 0.441943 1.9162 0.43176 1.16923 1.16155C1.16687 1.16386 1.16446 1.16613 1.16202 1.16837C0.437324 1.83215 0.426617 2.94308 1.16923 3.66862L1.17118 3.67053L3.97496 6.45877L6.83077 3.66862C6.83313 3.66631 6.83554 3.66404 6.83798 3.6618C7.56268 2.99802 7.57338 1.88709 6.83077 1.16155C6.08781 0.435675 4.93072 0.435675 4.18776 1.16155C4.12907 1.21889 4.05001 1.25038 3.96809 1.24906C3.88616 1.24773 3.80815 1.21369 3.75134 1.15449ZM3.97861 0.527251C3.03787 -0.238451 1.64917 -0.165597 0.743352 0.716047C-0.25279 1.6322 -0.241257 3.15114 0.738808 4.10969C0.739141 4.11002 0.739475 4.11034 0.739808 4.11067L3.7564 7.11054C3.87559 7.22907 4.06752 7.22992 4.18776 7.11245L7.25676 4.11402C8.25313 3.19755 8.24121 1.67797 7.26019 0.719503C6.34896 -0.170779 4.95879 -0.234863 3.97861 0.527251Z" fill="#757575"/>
</svg>
