<svg width="46" height="46" viewBox="0 0 46 46" fill="none" xmlns="http://www.w3.org/2000/svg">
<path d="M41.7939 19.2462H40.25V19.1667H23V26.8333H33.8321C32.2518 31.2963 28.0054 34.5 23 34.5C16.6491 34.5 11.5 29.3509 11.5 23C11.5 16.6491 16.6491 11.5 23 11.5C25.9316 11.5 28.5986 12.6059 30.6293 14.4124L36.0506 8.99109C32.6274 5.8008 28.0485 3.83334 23 3.83334C12.4152 3.83334 3.83334 12.4152 3.83334 23C3.83334 33.5848 12.4152 42.1667 23 42.1667C33.5848 42.1667 42.1667 33.5848 42.1667 23C42.1667 21.7149 42.0344 20.4604 41.7939 19.2462Z" fill="#FFC107"/>
<path d="M6.04324 14.0789L12.3405 18.6971C14.0444 14.4785 18.171 11.5 23 11.5C25.9315 11.5 28.5986 12.6059 30.6293 14.4124L36.0506 8.99109C32.6274 5.8008 28.0485 3.83334 23 3.83334C15.6381 3.83334 9.25366 7.98963 6.04324 14.0789Z" fill="#FF3D00"/>
<path d="M23 42.1667C27.9508 42.1667 32.4492 40.272 35.8503 37.191L29.9182 32.1712C27.9939 33.6289 25.6019 34.5 23 34.5C18.0148 34.5 13.7818 31.3212 12.1871 26.8851L5.93687 31.7007C9.10896 37.9078 15.5509 42.1667 23 42.1667Z" fill="#4CAF50"/>
<path d="M41.7939 19.2462H40.25V19.1667H23V26.8333H33.832C33.073 28.9771 31.694 30.8257 29.9153 32.1722L29.9182 32.1703L35.8503 37.19C35.4305 37.5714 42.1667 32.5833 42.1667 23C42.1667 21.7149 42.0344 20.4604 41.7939 19.2462Z" fill="#1976D2"/>
</svg>
