<svg width="20" height="20" viewBox="0 0 20 20" fill="none" xmlns="http://www.w3.org/2000/svg">
<path d="M9.33418 0C9.77644 0 10.2198 0 10.6621 0C10.8998 0.0297155 11.1375 0.0548594 11.3729 0.0902895C14.0093 0.490306 16.1817 1.7155 17.8353 3.80702C19.5872 6.02311 20.2762 8.56264 19.8991 11.3582C19.5426 14.0006 18.2901 16.171 16.2011 17.8282C13.9818 19.5882 11.4392 20.2694 8.6348 19.9048C6.62809 19.6443 4.86136 18.8168 3.35519 17.4647C1.56789 15.8612 0.481108 13.868 0.111992 11.4896C0.070852 11.2153 0.0377116 10.9387 0 10.6633C0 10.221 0 9.77755 0 9.33525C0.0297121 9.09867 0.0559959 8.86094 0.0902792 8.62436C0.377116 6.65856 1.15877 4.91449 2.47296 3.42414C4.0797 1.60464 6.08642 0.494878 8.48967 0.115433C8.77079 0.072003 9.05306 0.0388588 9.33418 0ZM1.36904 10.0061C1.37933 14.7595 5.26705 18.6419 10.0061 18.6305C14.7589 18.6191 18.6409 14.7309 18.6295 9.99127C18.6181 5.23793 14.7304 1.35549 9.99242 1.36691C5.23848 1.37949 1.35876 5.26651 1.36904 10.0061Z" fill="black"/>
<path d="M7.01777 10.693C7.09662 10.7776 7.14234 10.8302 7.19033 10.8782C7.99027 11.6793 8.79364 12.4782 9.5913 13.2817C9.92613 13.6189 9.89985 14.092 9.54331 14.3515C9.29418 14.532 8.99363 14.5355 8.74451 14.356C8.67137 14.3035 8.60509 14.2383 8.54109 14.1743C7.34918 12.9834 6.15726 11.7913 4.96535 10.5993C4.5471 10.181 4.54595 9.82326 4.96078 9.40839C6.16641 8.20263 7.37203 6.998 8.57652 5.7911C8.76508 5.60137 8.97649 5.47451 9.25304 5.52594C9.51588 5.57509 9.70444 5.73167 9.789 5.98539C9.88157 6.26426 9.80386 6.50998 9.59816 6.71685C8.96278 7.3523 8.32968 7.98776 7.69315 8.62093C7.47831 8.8358 7.25661 9.0438 7.03834 9.25524C7.0452 9.27353 7.05206 9.29181 7.06006 9.3101C7.13434 9.3101 7.20747 9.3101 7.28175 9.3101C9.68272 9.3101 12.0837 9.30896 14.4847 9.30896C14.9406 9.30896 15.2149 9.51125 15.2846 9.89184C15.3475 10.2313 15.12 10.5867 14.7806 10.661C14.6675 10.6862 14.5487 10.6919 14.4321 10.6919C12.0506 10.6942 9.66901 10.6942 7.28747 10.6942C7.2109 10.693 7.13662 10.693 7.01777 10.693Z" fill="#FB7E3C"/>
</svg>
