<svg width="22" height="22" viewBox="0 0 22 22" fill="none" xmlns="http://www.w3.org/2000/svg">
<path d="M8.22611 21.9396C7.39108 21.9399 6.58991 21.6095 5.9978 21.0207L0.920947 15.9438C0.33106 15.35 0 14.5469 0 13.7098C0 12.8727 0.33106 12.0696 0.920947 11.4758L11.5456 0.897053C12.1446 0.321463 12.9431 0 13.7739 0C14.6046 0 15.4032 0.321463 16.0022 0.897053L21.0791 5.96242C21.6689 6.55632 22 7.35941 22 8.19647C22 9.03353 21.6689 9.83662 21.0791 10.4305L10.4659 21.0552C9.86401 21.632 9.05974 21.9496 8.22611 21.9396ZM13.7739 1.65514C13.5855 1.65439 13.3989 1.69164 13.2252 1.76466C13.0515 1.83768 12.8944 1.94497 12.7631 2.08012L2.13847 12.6933C1.87395 12.9655 1.72597 13.3302 1.72597 13.7098C1.72597 14.0894 1.87395 14.4541 2.13847 14.7263L7.21533 19.8032C7.48759 20.0677 7.85224 20.2157 8.23185 20.2157C8.61146 20.2157 8.97611 20.0677 9.24837 19.8032L19.8615 9.17853C19.9952 9.04516 20.1013 8.88672 20.1737 8.71229C20.2461 8.53786 20.2833 8.35086 20.2833 8.16201C20.2833 7.97316 20.2461 7.78616 20.1737 7.61173C20.1013 7.4373 19.9952 7.27886 19.8615 7.14549L14.7847 2.04566C14.6505 1.91673 14.4921 1.8158 14.3186 1.74875C14.145 1.6817 13.9599 1.64987 13.7739 1.65514Z" fill="#FB7E3C"/>
<path d="M13.7739 11.8892C13.5602 11.8948 13.3478 11.8558 13.15 11.7747C12.9523 11.6936 12.7736 11.5722 12.6253 11.4183L10.7875 9.59199C10.6347 9.44227 10.5133 9.26356 10.4304 9.06633C10.3476 8.8691 10.3049 8.65732 10.3049 8.44338C10.3049 8.22945 10.3476 8.01766 10.4304 7.82044C10.5133 7.62321 10.6347 7.4445 10.7875 7.29477L12.7287 5.35362C12.8784 5.20081 13.0571 5.07941 13.2543 4.99654C13.4516 4.91366 13.6633 4.87097 13.8773 4.87097C14.0912 4.87097 14.303 4.91366 14.5002 4.99654C14.6975 5.07941 14.8762 5.20081 15.0259 5.35362L16.8522 7.1914C17.0079 7.33946 17.1318 7.51763 17.2165 7.71509C17.3013 7.91254 17.3449 8.12515 17.3449 8.34001C17.3449 8.55486 17.3013 8.76748 17.2165 8.96493C17.1318 9.16238 17.0079 9.34055 16.8522 9.48862L14.911 11.4298C14.7631 11.5802 14.5858 11.6986 14.3902 11.7776C14.1946 11.8567 13.9848 11.8947 13.7739 11.8892ZM12.1199 8.44338L13.7739 10.0859L15.5657 8.29406L13.8888 6.6975L12.1199 8.44338Z" fill="#FB7E3C"/>
<path d="M5.73365 14.4966C5.51826 14.4834 5.31464 14.3938 5.15935 14.244C4.99802 14.0824 4.90741 13.8635 4.90741 13.6352C4.90741 13.4069 4.99802 13.188 5.15935 13.0264L7.45657 10.7292C7.53576 10.6479 7.63042 10.5833 7.73497 10.5392C7.83953 10.4951 7.95185 10.4724 8.06533 10.4724C8.1788 10.4724 8.29113 10.4951 8.39568 10.5392C8.50024 10.5833 8.5949 10.6479 8.67409 10.7292C8.83542 10.8907 8.92603 11.1097 8.92603 11.338C8.92603 11.5663 8.83542 11.7852 8.67409 11.9467L6.37687 14.244C6.20419 14.4097 5.973 14.5006 5.73365 14.4966Z" fill="#FB7E3C"/>
<path d="M8.03083 16.7939C7.81544 16.7806 7.61182 16.691 7.45653 16.5412C7.2952 16.3797 7.20459 16.1607 7.20459 15.9324C7.20459 15.7041 7.2952 15.4852 7.45653 15.3237L9.75375 13.0264C9.83294 12.9452 9.9276 12.8806 10.0322 12.8365C10.1367 12.7924 10.249 12.7697 10.3625 12.7697C10.476 12.7697 10.5883 12.7924 10.6929 12.8365C10.7974 12.8806 10.8921 12.9452 10.9713 13.0264C11.1326 13.188 11.2232 13.4069 11.2232 13.6352C11.2232 13.8635 11.1326 14.0825 10.9713 14.244L8.67405 16.5412C8.50137 16.707 8.27018 16.7978 8.03083 16.7939Z" fill="#FB7E3C"/>
</svg>
