<svg width="15" height="24" viewBox="0 0 15 24" fill="none" xmlns="http://www.w3.org/2000/svg">
<g clip-path="url(#clip0_0_1671)">
<path d="M14.9822 2.33591C15.0642 1.70285 14.8689 1.11258 14.4178 0.628426C13.9604 0.138026 13.3844 -0.0715081 12.7522 0.0203304C10.4214 0.361827 7.81252 5.22214 7.12328 6.58456C6.32884 6.60417 5.68775 7.25596 5.68775 8.05576C5.68775 8.86625 6.34845 9.52696 7.15895 9.52607C7.97034 9.52607 8.63015 8.86625 8.63015 8.05487C8.63015 7.78024 8.55258 7.52345 8.42062 7.30232C9.60025 4.95643 11.7482 1.66451 12.9662 1.48707C13.066 1.47281 13.1775 1.47191 13.3335 1.63954C13.4833 1.80093 13.5368 1.95161 13.5119 2.1451C13.4236 2.82898 12.425 3.86685 10.9618 4.80218C10.6675 4.71569 10.3385 4.81644 10.1504 5.08037C9.91232 5.41384 9.9899 5.8766 10.3234 6.11377L12.8342 7.90418L12.836 21.5168H1.48457L1.48279 7.90507L7.19729 3.82851C7.53076 3.59044 7.60744 3.12768 7.37027 2.79421C7.1322 2.46074 6.66944 2.38406 6.33686 2.62123L0.592047 6.72098C0.222017 6.98579 0 7.41556 0 7.87208L0.00178327 21.5872C0.00178327 21.9662 0.148903 22.3219 0.417286 22.5894C0.683885 22.8551 1.03786 23.0023 1.41324 23.0023H12.9038C13.6831 23.0023 14.317 22.3674 14.3179 21.5863L14.3161 7.87119C14.3161 7.41378 14.0941 6.98312 13.7232 6.72009L12.2903 5.69827C13.412 4.90828 14.8083 3.67426 14.9813 2.33769L14.9822 2.33591Z" fill="#FF8F46"/>
</g>
<defs>
<clipPath id="clip0_0_1671">
<rect width="15" height="23.0015" fill="white"/>
</clipPath>
</defs>
</svg>
