<svg width="20" height="20" viewBox="0 0 20 20" fill="none" xmlns="http://www.w3.org/2000/svg">
<path d="M9.33419 0C9.77644 0 10.2198 0 10.6621 0C10.8998 0.0297155 11.1375 0.0548595 11.3729 0.0902896C14.0093 0.490307 16.1817 1.7155 17.8353 3.80702C19.5872 6.02311 20.2763 8.56265 19.8991 11.3582C19.5426 14.0006 18.2901 16.171 16.2011 17.8282C13.9819 19.5883 11.4392 20.2694 8.63481 19.9048C6.6281 19.6443 4.86137 18.8168 3.35519 17.4647C1.56789 15.8612 0.481108 13.868 0.111992 11.4896C0.0708521 11.2153 0.0377116 10.9388 0 10.6633C0 10.221 0 9.77756 0 9.33525C0.0297122 9.09867 0.055996 8.86095 0.0902793 8.62437C0.377116 6.65857 1.15877 4.91449 2.47297 3.42415C4.07971 1.60464 6.08642 0.494878 8.48968 0.115433C8.7708 0.0720031 9.05307 0.0388588 9.33419 0ZM1.36904 10.0061C1.37933 14.7595 5.26705 18.6419 10.0061 18.6305C14.7589 18.6191 18.641 14.7309 18.6295 9.99128C18.6181 5.23794 14.7304 1.35549 9.99243 1.36692C5.23848 1.37949 1.35876 5.26651 1.36904 10.0061Z" fill="white"/>
</svg>
