<svg width="20" height="16" viewBox="0 0 20 16" fill="none" xmlns="http://www.w3.org/2000/svg">
<path d="M15.972 4.45228C15.8319 4.43744 15.7283 4.30721 15.7427 4.1605C15.757 4.01543 15.8828 3.90828 16.0246 3.92312C16.34 3.95773 16.641 4.05829 16.9165 4.22973C17.0503 4.31216 17.1762 4.41107 17.2956 4.52646C17.3498 4.38964 17.4167 4.2627 17.4931 4.14401C17.6635 3.88355 17.8849 3.66925 18.1461 3.51264C18.2688 3.43846 18.4265 3.48297 18.4965 3.6099C18.5682 3.73684 18.5252 3.90004 18.4026 3.97257C18.2082 4.08796 18.0442 4.24787 17.9184 4.44074C17.7957 4.63032 17.7081 4.85286 17.6651 5.10179C17.6556 5.17267 17.6205 5.23861 17.56 5.28312C17.4453 5.36884 17.2845 5.34082 17.2016 5.22213C17.0408 4.98804 16.8544 4.81 16.6521 4.68472C16.4435 4.55449 16.2141 4.47866 15.972 4.45228ZM5.89156 6.39585V15.2004H6.87906L8.02902 13.8915H7.419V13.092H9.308L7.17691 10.6473L7.75029 10.1132L9.04041 11.5919V11.5342H12.1988C12.3374 11.5342 12.46 11.61 12.5285 11.7238L13.4619 13.0904H15.2155C15.3318 13.0904 15.4369 13.1431 15.507 13.2288L17.4278 15.2004H19.5716V16H0.111492V15.2004H5.2911V6.39585H0.301029C0.135383 6.39585 0 6.25738 0 6.08429C0 6.0744 0 6.0645 0.00159274 6.05297C0.0143347 4.50009 0.640283 3.09722 1.6453 2.0801C2.63758 1.07947 3.99779 0.451397 5.50134 0.429966C5.53001 0.420075 5.56186 0.41513 5.59372 0.41513C5.62557 0.41513 5.65743 0.420075 5.68769 0.429966C7.18328 0.457991 8.53392 1.08442 9.52142 2.08175C10.5328 3.10547 11.1604 4.51987 11.1651 6.08429C11.1651 6.25573 11.0313 6.3942 10.8657 6.3942V6.39585H5.89156ZM7.92231 15.2021H16.332L15.0562 13.8932H9.07227L7.92231 15.2021ZM10.3481 13.092H12.5158L11.9997 12.3354H9.68866L10.3481 13.092ZM13.3663 1.31026C13.2023 1.33169 13.0525 1.213 13.0302 1.0432C13.0095 0.87341 13.1242 0.718452 13.2883 0.695373C13.8075 0.624488 14.3092 0.688779 14.7631 0.898137C15.0371 1.02507 15.2903 1.20311 15.5181 1.43719C15.6423 1.14871 15.8112 0.89484 16.0182 0.682185C16.3607 0.331057 16.8019 0.0953229 17.3052 0.00465599C17.4692 -0.0250168 17.6237 0.0903775 17.6524 0.258523C17.6811 0.428318 17.5696 0.588221 17.4071 0.617894C17.028 0.685482 16.6967 0.861871 16.4435 1.12233C16.1918 1.3795 16.0134 1.72403 15.9354 2.13121H15.9338C15.9195 2.20869 15.8765 2.28122 15.808 2.32903C15.671 2.42464 15.4847 2.38837 15.3923 2.2466C15.1502 1.87734 14.8523 1.62018 14.5195 1.46687C14.1706 1.30202 13.7788 1.25421 13.3663 1.31026ZM9.10253 2.52685C8.69479 2.11472 8.21537 1.77184 7.68658 1.52292C7.89045 1.82789 8.06247 2.17572 8.20263 2.55982C8.52914 3.45165 8.68842 4.54789 8.70435 5.77437H10.5551C10.4755 4.50833 9.93554 3.36922 9.10253 2.52685ZM6.46336 1.13057C6.277 1.0976 6.08747 1.07453 5.89475 1.06134V5.77437H8.10547C8.09114 4.62372 7.94301 3.60166 7.64199 2.77906C7.37441 2.04549 6.98578 1.47676 6.46336 1.13057ZM5.29269 1.05969C5.10315 1.07123 4.91521 1.09266 4.73204 1.12398C4.20325 1.47181 3.80984 2.04549 3.54067 2.78896C3.24283 3.60825 3.09629 4.62867 3.08196 5.77272H5.29269V1.05969ZM3.512 1.50808C2.97047 1.7603 2.4799 2.10648 2.0642 2.52849C1.23119 3.37087 0.691251 4.50998 0.611614 5.77437H2.48468C2.49902 4.55449 2.65829 3.46154 2.98162 2.57135C3.12337 2.17572 3.30017 1.81799 3.512 1.50808Z" fill="#757575"/>
</svg>
