<svg width="15" height="15" viewBox="0 0 15 15" fill="none" xmlns="http://www.w3.org/2000/svg">
<path fill-rule="evenodd" clip-rule="evenodd" d="M7.50209 5.72368C6.48284 5.72368 5.65657 6.51897 5.65657 7.5C5.65657 8.48103 6.48284 9.27632 7.50209 9.27632C8.52135 9.27632 9.34762 8.48103 9.34762 7.5C9.34762 6.51897 8.52135 5.72368 7.50209 5.72368ZM4.42622 7.5C4.42622 5.86495 5.80333 4.53947 7.50209 4.53947C9.20085 4.53947 10.578 5.86495 10.578 7.5C10.578 9.13505 9.20085 10.4605 7.50209 10.4605C5.80333 10.4605 4.42622 9.13505 4.42622 7.5Z" fill="#030D45"/>
<path fill-rule="evenodd" clip-rule="evenodd" d="M13.801 7.5L13.9779 7.59876C14.9515 8.14228 15.288 9.33955 14.7318 10.2814L13.603 12.1928C13.0399 13.1463 11.7772 13.4751 10.7915 12.9248L10.6396 12.84V13.0263C10.6396 14.1164 9.72151 15 8.58901 15H6.35053C5.21803 15 4.29995 14.1164 4.29995 13.0263V12.8653L4.22701 12.907C3.24011 13.4714 1.96412 13.1461 1.39685 12.1855L0.268174 10.2742C-0.283854 9.33946 0.0430845 8.15137 1.00348 7.60215L1.18211 7.5L1.00348 7.39785C0.0430848 6.84863 -0.283854 5.66055 0.268174 4.72577L1.39685 2.81451C1.96411 1.85394 3.2401 1.52865 4.22701 2.09302L4.29995 2.13473V1.97368C4.29995 0.883646 5.21803 0 6.35053 0H8.58901C9.72151 0 10.6396 0.883649 10.6396 1.97368V2.15997L10.7915 2.07519C11.7772 1.52492 13.0399 1.85368 13.603 2.80719L14.7318 4.71865C15.288 5.66045 14.9515 6.85772 13.9779 7.40124L13.801 7.5ZM12.572 8.18292C12.0271 7.87871 12.0271 7.1213 12.572 6.81708L13.3606 6.37686C13.7501 6.15946 13.8846 5.68055 13.6622 5.30382L12.5334 3.39237C12.3081 3.01096 11.803 2.87946 11.4088 3.09956L10.641 3.52816C10.0942 3.83342 9.40924 3.45368 9.40924 2.84524V1.97368C9.40924 1.53767 9.04201 1.18421 8.58901 1.18421H6.35053C5.89753 1.18421 5.5303 1.53767 5.5303 1.97368V2.82842C5.5303 3.44055 4.83786 3.81981 4.2911 3.50713L3.59855 3.11109C3.20379 2.88534 2.6934 3.01546 2.46649 3.39969L1.33781 5.31095C1.117 5.68486 1.24778 6.16009 1.63194 6.37978L2.40398 6.82129C2.939 7.12725 2.93901 7.87275 2.40398 8.17871L1.63194 8.62022C1.24778 8.83991 1.117 9.31514 1.33781 9.68906L2.46649 11.6003C2.6934 11.9845 3.20379 12.1147 3.59855 11.8889L4.2911 11.4929C4.83786 11.1802 5.5303 11.5594 5.5303 12.1716V13.0263C5.5303 13.4623 5.89753 13.8158 6.35053 13.8158H8.58901C9.04201 13.8158 9.40924 13.4623 9.40924 13.0263V12.1548C9.40924 11.5463 10.0942 11.1666 10.641 11.4718L11.4088 11.9004C11.803 12.1205 12.3081 11.989 12.5334 11.6076L13.6622 9.69618C13.8846 9.31945 13.7501 8.84054 13.3606 8.62314L12.572 8.18292Z" fill="#030D45"/>
</svg>
